<?xml version="1.0" encoding="UTF-8" standalone="no"?>
<!DOCTYPE svg PUBLIC "-//W3C//DTD SVG 1.1//EN"
 "http://www.w3.org/Graphics/SVG/1.1/DTD/svg11.dtd">
<!-- Generated by graphviz version 8.0.3 (20230416.2022)
 -->
<!-- Title: G Pages: 1 -->
<svg width="164pt" height="196pt"
 viewBox="0.00 0.00 164.00 196.00" xmlns="http://www.w3.org/2000/svg" xmlns:xlink="http://www.w3.org/1999/xlink">
<g id="graph0" class="graph" transform="scale(1 1) rotate(0) translate(4 192)">
<title>G</title>
<polygon fill="white" stroke="none" points="-4,4 -4,-192 160,-192 160,4 -4,4"/>
<!-- pp -->
<g id="node1" class="node">
<title>pp</title>
<ellipse fill="#444444" stroke="black" cx="95" cy="-170" rx="18" ry="18"/>
<text text-anchor="middle" x="95" y="-167.8" font-family="Times,serif" font-size="9.00" fill="white">pp</text>
</g>
<!-- p -->
<g id="node2" class="node">
<title>p</title>
<ellipse fill="red" stroke="black" cx="52" cy="-98" rx="18" ry="18"/>
<text text-anchor="middle" x="52" y="-95.8" font-family="Times,serif" font-size="9.00" fill="white">p</text>
</g>
<!-- pp&#45;&gt;p -->
<g id="edge1" class="edge">
<title>pp&#45;&gt;p</title>
<path fill="none" stroke="black" d="M85.88,-154.15C80.18,-144.87 72.72,-132.73 66.25,-122.19"/>
<polygon fill="black" stroke="black" points="61.11,-113.82 70.17,-119.99 63.72,-118.08 66.34,-122.34 66.34,-122.34 66.34,-122.34 63.72,-118.08 62.51,-124.7 61.11,-113.82 61.11,-113.82"/>
</g>
<!-- _pp -->
<!-- pp&#45;&gt;_pp -->
<!-- p2 -->
<g id="node4" class="node">
<title>p2</title>
<ellipse fill="#444444" stroke="black" stroke-dasharray="5,2" cx="138" cy="-98" rx="18" ry="18"/>
<text text-anchor="middle" x="138" y="-95.8" font-family="Times,serif" font-size="9.00" fill="white">p2</text>
</g>
<!-- pp&#45;&gt;p2 -->
<g id="edge3" class="edge">
<title>pp&#45;&gt;p2</title>
<path fill="none" stroke="black" d="M104.12,-154.15C109.82,-144.87 117.28,-132.73 123.75,-122.19"/>
<polygon fill="black" stroke="black" points="128.89,-113.82 127.49,-124.7 126.28,-118.08 123.66,-122.34 123.66,-122.34 123.66,-122.34 126.28,-118.08 119.83,-119.99 128.89,-113.82 128.89,-113.82"/>
</g>
<!-- x -->
<g id="node5" class="node">
<title>x</title>
<ellipse fill="red" stroke="black" cx="22" cy="-22" rx="18" ry="18"/>
<ellipse fill="none" stroke="black" cx="22" cy="-22" rx="22" ry="22"/>
<text text-anchor="middle" x="22" y="-19.8" font-family="Times,serif" font-size="9.00" fill="white">x</text>
</g>
<!-- p&#45;&gt;x -->
<g id="edge4" class="edge">
<title>p&#45;&gt;x</title>
<path fill="none" stroke="black" d="M45.49,-80.94C42.07,-72.5 37.77,-61.9 33.79,-52.07"/>
<polygon fill="black" stroke="black" points="30.1,-42.99 38.03,-50.56 31.98,-47.62 33.86,-52.25 33.86,-52.25 33.86,-52.25 31.98,-47.62 29.69,-53.95 30.1,-42.99 30.1,-42.99"/>
</g>
<!-- _p -->
<!-- p&#45;&gt;_p -->
<!-- y -->
<g id="node7" class="node">
<title>y</title>
<ellipse fill="#444444" stroke="black" stroke-dasharray="5,2" cx="78" cy="-22" rx="18" ry="18"/>
<text text-anchor="middle" x="78" y="-19.8" font-family="Times,serif" font-size="9.00" fill="white">y</text>
</g>
<!-- p&#45;&gt;y -->
<g id="edge6" class="edge">
<title>p&#45;&gt;y</title>
<path fill="none" stroke="black" d="M57.77,-80.58C61.07,-71.19 65.28,-59.21 69,-48.61"/>
<polygon fill="black" stroke="black" points="72.25,-39.38 73.18,-50.3 70.59,-44.09 68.93,-48.81 68.93,-48.81 68.93,-48.81 70.59,-44.09 64.69,-47.32 72.25,-39.38 72.25,-39.38"/>
</g>
</g>
</svg>
