<?xml version="1.0" encoding="UTF-8" standalone="no"?>
<!DOCTYPE svg PUBLIC "-//W3C//DTD SVG 1.1//EN"
 "http://www.w3.org/Graphics/SVG/1.1/DTD/svg11.dtd">
<!-- Generated by graphviz version 8.0.3 (20230416.2022)
 -->
<!-- Title: G Pages: 1 -->
<svg width="159pt" height="196pt"
 viewBox="0.00 0.00 159.00 196.00" xmlns="http://www.w3.org/2000/svg" xmlns:xlink="http://www.w3.org/1999/xlink">
<g id="graph0" class="graph" transform="scale(1 1) rotate(0) translate(4 192)">
<title>G</title>
<polygon fill="white" stroke="none" points="-4,4 -4,-192 155,-192 155,4 -4,4"/>
<!-- p -->
<g id="node1" class="node">
<title>p</title>
<ellipse fill="#444444" stroke="black" cx="55" cy="-170" rx="18" ry="18"/>
<text text-anchor="middle" x="55" y="-167.8" font-family="Times,serif" font-size="9.00" fill="white">p</text>
</g>
<!-- x -->
<g id="node2" class="node">
<title>x</title>
<ellipse fill="red" stroke="black" cx="22" cy="-94" rx="18" ry="18"/>
<ellipse fill="none" stroke="black" cx="22" cy="-94" rx="22" ry="22"/>
<text text-anchor="middle" x="22" y="-91.8" font-family="Times,serif" font-size="9.00" fill="white">x</text>
</g>
<!-- p&#45;&gt;x -->
<g id="edge1" class="edge">
<title>p&#45;&gt;x</title>
<path fill="none" stroke="black" d="M47.84,-152.94C43.98,-144.29 39.1,-133.35 34.63,-123.31"/>
<polygon fill="black" stroke="black" points="30.67,-114.44 38.85,-121.74 32.71,-119.01 34.74,-123.58 34.74,-123.58 34.74,-123.58 32.71,-119.01 30.63,-125.41 30.67,-114.44 30.67,-114.44"/>
</g>
<!-- _p -->
<!-- p&#45;&gt;_p -->
<!-- pp -->
<g id="node4" class="node">
<title>pp</title>
<ellipse fill="red" stroke="black" cx="107" cy="-94" rx="18" ry="18"/>
<text text-anchor="middle" x="107" y="-91.8" font-family="Times,serif" font-size="9.00" fill="white">pp</text>
</g>
<!-- p&#45;&gt;pp -->
<g id="edge3" class="edge">
<title>p&#45;&gt;pp</title>
<path fill="none" stroke="black" d="M65.03,-154.73C72.51,-144.09 82.87,-129.34 91.43,-117.16"/>
<polygon fill="black" stroke="black" points="97,-109.22 94.94,-119.99 94.13,-113.32 91.26,-117.41 91.26,-117.41 91.26,-117.41 94.13,-113.32 87.57,-114.82 97,-109.22 97,-109.22"/>
</g>
<!-- y -->
<g id="node5" class="node">
<title>y</title>
<ellipse fill="#444444" stroke="black" stroke-dasharray="5,2" cx="81" cy="-18" rx="18" ry="18"/>
<text text-anchor="middle" x="81" y="-15.8" font-family="Times,serif" font-size="9.00" fill="white">y</text>
</g>
<!-- pp&#45;&gt;y -->
<g id="edge4" class="edge">
<title>pp&#45;&gt;y</title>
<path fill="none" stroke="black" d="M101.23,-76.58C97.93,-67.19 93.72,-55.21 90,-44.61"/>
<polygon fill="black" stroke="black" points="86.75,-35.38 94.31,-43.32 88.41,-40.09 90.07,-44.81 90.07,-44.81 90.07,-44.81 88.41,-40.09 85.82,-46.3 86.75,-35.38 86.75,-35.38"/>
</g>
<!-- _pp -->
<!-- pp&#45;&gt;_pp -->
<!-- p2 -->
<g id="node7" class="node">
<title>p2</title>
<ellipse fill="#444444" stroke="black" stroke-dasharray="5,2" cx="133" cy="-18" rx="18" ry="18"/>
<text text-anchor="middle" x="133" y="-15.8" font-family="Times,serif" font-size="9.00" fill="white">p2</text>
</g>
<!-- pp&#45;&gt;p2 -->
<g id="edge6" class="edge">
<title>pp&#45;&gt;p2</title>
<path fill="none" stroke="black" d="M112.77,-76.58C116.07,-67.19 120.28,-55.21 124,-44.61"/>
<polygon fill="black" stroke="black" points="127.25,-35.38 128.18,-46.3 125.59,-40.09 123.93,-44.81 123.93,-44.81 123.93,-44.81 125.59,-40.09 119.69,-43.32 127.25,-35.38 127.25,-35.38"/>
</g>
</g>
</svg>
