<?xml version="1.0" encoding="UTF-8" standalone="no"?>
<!DOCTYPE svg PUBLIC "-//W3C//DTD SVG 1.1//EN"
 "http://www.w3.org/Graphics/SVG/1.1/DTD/svg11.dtd">
<!-- Generated by graphviz version 6.0.1 (20220911.1526)
 -->
<!-- Title: rbt_2 Pages: 1 -->
<svg width="151pt" height="188pt"
 viewBox="0.00 0.00 151.00 188.00" xmlns="http://www.w3.org/2000/svg" xmlns:xlink="http://www.w3.org/1999/xlink">
<g id="graph0" class="graph" transform="scale(1 1) rotate(0) translate(4 184)">
<title>rbt_2</title>
<polygon fill="white" stroke="none" points="-4,4 -4,-184 147,-184 147,4 -4,4"/>
<!-- 4 -->
<g id="node1" class="node">
<title>4</title>
<ellipse fill="none" stroke="black" cx="82" cy="-162" rx="18" ry="18"/>
<text text-anchor="middle" x="82" y="-159.8" font-family="Times,serif" font-size="9.00">4</text>
</g>
<!-- 2 -->
<g id="node2" class="node">
<title>2</title>
<ellipse fill="none" stroke="black" cx="39" cy="-90" rx="18" ry="18"/>
<text text-anchor="middle" x="39" y="-87.8" font-family="Times,serif" font-size="9.00">2</text>
</g>
<!-- 4&#45;&gt;2 -->
<g id="edge1" class="edge">
<title>4&#45;&gt;2</title>
<path fill="none" stroke="black" d="M72.88,-146.15C67.24,-136.97 59.87,-124.97 53.44,-114.51"/>
<polygon fill="black" stroke="black" points="48.11,-105.82 57.17,-111.99 50.72,-110.08 53.34,-114.34 53.34,-114.34 53.34,-114.34 50.72,-110.08 49.51,-116.7 48.11,-105.82 48.11,-105.82"/>
</g>
<!-- c4 -->
<!-- 4&#45;&gt;c4 -->
<!-- 8 -->
<g id="node4" class="node">
<title>8</title>
<ellipse fill="none" stroke="black" cx="125" cy="-90" rx="18" ry="18"/>
<text text-anchor="middle" x="125" y="-87.8" font-family="Times,serif" font-size="9.00">8</text>
</g>
<!-- 4&#45;&gt;8 -->
<g id="edge4" class="edge">
<title>4&#45;&gt;8</title>
<path fill="none" stroke="black" d="M91.12,-146.15C96.76,-136.97 104.13,-124.97 110.56,-114.51"/>
<polygon fill="black" stroke="black" points="115.89,-105.82 114.49,-116.7 113.28,-110.08 110.66,-114.34 110.66,-114.34 110.66,-114.34 113.28,-110.08 106.83,-111.99 115.89,-105.82 115.89,-105.82"/>
</g>
<!-- 1 -->
<g id="node5" class="node">
<title>1</title>
<ellipse fill="none" stroke="black" cx="18" cy="-18" rx="18" ry="18"/>
<text text-anchor="middle" x="18" y="-15.8" font-family="Times,serif" font-size="9.00">1</text>
</g>
<!-- 2&#45;&gt;1 -->
<g id="edge2" class="edge">
<title>2&#45;&gt;1</title>
<path fill="none" stroke="black" d="M34.02,-72.41C31.59,-64.3 28.61,-54.35 25.87,-45.25"/>
<polygon fill="black" stroke="black" points="22.94,-35.47 30.12,-43.76 24.38,-40.26 25.81,-45.05 25.81,-45.05 25.81,-45.05 24.38,-40.26 21.5,-46.34 22.94,-35.47 22.94,-35.47"/>
</g>
<!-- c2 -->
<!-- 2&#45;&gt;c2 -->
<!-- c8 -->
</g>
</svg>
