<?xml version="1.0" encoding="UTF-8" standalone="no"?>
<!DOCTYPE svg PUBLIC "-//W3C//DTD SVG 1.1//EN"
 "http://www.w3.org/Graphics/SVG/1.1/DTD/svg11.dtd">
<!-- Generated by graphviz version 6.0.1 (20220911.1526)
 -->
<!-- Title: G Pages: 1 -->
<svg width="129pt" height="260pt"
 viewBox="0.00 0.00 129.00 260.00" xmlns="http://www.w3.org/2000/svg" xmlns:xlink="http://www.w3.org/1999/xlink">
<g id="graph0" class="graph" transform="scale(1 1) rotate(0) translate(4 256)">
<title>G</title>
<polygon fill="white" stroke="none" points="-4,4 -4,-256 125,-256 125,4 -4,4"/>
<!-- 8 -->
<g id="node1" class="node">
<title>8</title>
<ellipse fill="none" stroke="black" cx="81" cy="-234" rx="18" ry="18"/>
<text text-anchor="middle" x="81" y="-231.8" font-family="Times,serif" font-size="9.00">8</text>
</g>
<!-- 4 -->
<g id="node2" class="node">
<title>4</title>
<ellipse fill="none" stroke="black" cx="60" cy="-162" rx="18" ry="18"/>
<text text-anchor="middle" x="60" y="-159.8" font-family="Times,serif" font-size="9.00">4</text>
</g>
<!-- 8&#45;&gt;4 -->
<g id="edge1" class="edge">
<title>8&#45;&gt;4</title>
<path fill="none" stroke="black" d="M76.02,-216.41C73.59,-208.3 70.61,-198.35 67.87,-189.25"/>
<polygon fill="black" stroke="black" points="64.94,-179.47 72.12,-187.76 66.38,-184.26 67.81,-189.05 67.81,-189.05 67.81,-189.05 66.38,-184.26 63.5,-190.34 64.94,-179.47 64.94,-179.47"/>
</g>
<!-- c8 -->
<!-- 8&#45;&gt;c8 -->
<!-- 2 -->
<g id="node3" class="node">
<title>2</title>
<ellipse fill="none" stroke="black" cx="39" cy="-90" rx="18" ry="18"/>
<text text-anchor="middle" x="39" y="-87.8" font-family="Times,serif" font-size="9.00">2</text>
</g>
<!-- 4&#45;&gt;2 -->
<g id="edge2" class="edge">
<title>4&#45;&gt;2</title>
<path fill="none" stroke="black" d="M55.02,-144.41C52.59,-136.3 49.61,-126.35 46.87,-117.25"/>
<polygon fill="black" stroke="black" points="43.94,-107.47 51.12,-115.76 45.38,-112.26 46.81,-117.05 46.81,-117.05 46.81,-117.05 45.38,-112.26 42.5,-118.34 43.94,-107.47 43.94,-107.47"/>
</g>
<!-- c4 -->
<!-- 4&#45;&gt;c4 -->
<!-- 1 -->
<g id="node4" class="node">
<title>1</title>
<ellipse fill="none" stroke="black" cx="18" cy="-18" rx="18" ry="18"/>
<text text-anchor="middle" x="18" y="-15.8" font-family="Times,serif" font-size="9.00">1</text>
</g>
<!-- 2&#45;&gt;1 -->
<g id="edge3" class="edge">
<title>2&#45;&gt;1</title>
<path fill="none" stroke="black" d="M34.02,-72.41C31.59,-64.3 28.61,-54.35 25.87,-45.25"/>
<polygon fill="black" stroke="black" points="22.94,-35.47 30.12,-43.76 24.38,-40.26 25.81,-45.05 25.81,-45.05 25.81,-45.05 24.38,-40.26 21.5,-46.34 22.94,-35.47 22.94,-35.47"/>
</g>
<!-- c2 -->
<!-- 2&#45;&gt;c2 -->
</g>
</svg>
