<?xml version="1.0" encoding="UTF-8" standalone="no"?>
<!DOCTYPE svg PUBLIC "-//W3C//DTD SVG 1.1//EN"
 "http://www.w3.org/Graphics/SVG/1.1/DTD/svg11.dtd">
<!-- Generated by graphviz version 8.0.3 (20230416.2022)
 -->
<!-- Title: G Pages: 1 -->
<svg width="186pt" height="268pt"
 viewBox="0.00 0.00 186.00 268.00" xmlns="http://www.w3.org/2000/svg" xmlns:xlink="http://www.w3.org/1999/xlink">
<g id="graph0" class="graph" transform="scale(1 1) rotate(0) translate(4 264)">
<title>G</title>
<polygon fill="white" stroke="none" points="-4,4 -4,-264 182,-264 182,4 -4,4"/>
<!-- pp -->
<g id="node1" class="node">
<title>pp</title>
<ellipse fill="#444444" stroke="black" cx="117" cy="-242" rx="18" ry="18"/>
<text text-anchor="middle" x="117" y="-239.8" font-family="Times,serif" font-size="9.00" fill="white">pp</text>
</g>
<!-- x -->
<g id="node2" class="node">
<title>x</title>
<ellipse fill="red" stroke="black" cx="70" cy="-166" rx="18" ry="18"/>
<ellipse fill="none" stroke="black" cx="70" cy="-166" rx="22" ry="22"/>
<text text-anchor="middle" x="70" y="-163.8" font-family="Times,serif" font-size="9.00" fill="white">x</text>
</g>
<!-- pp&#45;&gt;x -->
<g id="edge1" class="edge">
<title>pp&#45;&gt;x</title>
<path fill="none" stroke="black" d="M107.71,-226.38C101.75,-216.98 93.82,-204.5 86.77,-193.4"/>
<polygon fill="black" stroke="black" points="81.6,-185.26 90.76,-191.29 84.28,-189.48 86.96,-193.7 86.96,-193.7 86.96,-193.7 84.28,-189.48 83.16,-196.12 81.6,-185.26 81.6,-185.26"/>
</g>
<!-- _pp -->
<!-- pp&#45;&gt;_pp -->
<!-- p2 -->
<g id="node4" class="node">
<title>p2</title>
<ellipse fill="#444444" stroke="black" stroke-dasharray="5,2" cx="160" cy="-166" rx="18" ry="18"/>
<text text-anchor="middle" x="160" y="-163.8" font-family="Times,serif" font-size="9.00" fill="white">p2</text>
</g>
<!-- pp&#45;&gt;p2 -->
<g id="edge3" class="edge">
<title>pp&#45;&gt;p2</title>
<path fill="none" stroke="black" d="M125.7,-226.02C131.61,-215.86 139.54,-202.21 146.29,-190.6"/>
<polygon fill="black" stroke="black" points="151.16,-182.21 150.03,-193.11 148.65,-186.53 146.14,-190.85 146.14,-190.85 146.14,-190.85 148.65,-186.53 142.25,-188.59 151.16,-182.21 151.16,-182.21"/>
</g>
<!-- p -->
<g id="node5" class="node">
<title>p</title>
<ellipse fill="red" stroke="black" cx="44" cy="-90" rx="18" ry="18"/>
<text text-anchor="middle" x="44" y="-87.8" font-family="Times,serif" font-size="9.00" fill="white">p</text>
</g>
<!-- x&#45;&gt;p -->
<g id="edge4" class="edge">
<title>x&#45;&gt;p</title>
<path fill="none" stroke="black" d="M62.9,-144.78C59.82,-136.01 56.18,-125.65 52.92,-116.38"/>
<polygon fill="black" stroke="black" points="49.7,-107.22 57.26,-115.16 51.36,-111.93 53.01,-116.65 53.01,-116.65 53.01,-116.65 51.36,-111.93 48.77,-118.14 49.7,-107.22 49.7,-107.22"/>
</g>
<!-- _x -->
<!-- x&#45;&gt;_x -->
<!-- x_R -->
<g id="node7" class="node">
<title>x_R</title>
<ellipse fill="#444444" stroke="black" stroke-dasharray="5,2" cx="96" cy="-90" rx="18" ry="18"/>
<text text-anchor="middle" x="96" y="-87.8" font-family="Times,serif" font-size="9.00" fill="white">x&#45;right</text>
</g>
<!-- x&#45;&gt;x_R -->
<g id="edge6" class="edge">
<title>x&#45;&gt;x_R</title>
<path fill="none" stroke="black" d="M77.1,-144.78C80.18,-136.01 83.82,-125.65 87.08,-116.38"/>
<polygon fill="black" stroke="black" points="90.3,-107.22 91.23,-118.14 88.64,-111.93 86.99,-116.65 86.99,-116.65 86.99,-116.65 88.64,-111.93 82.74,-115.16 90.3,-107.22 90.3,-107.22"/>
</g>
<!-- y -->
<g id="node8" class="node">
<title>y</title>
<ellipse fill="#444444" stroke="black" stroke-dasharray="5,2" cx="18" cy="-18" rx="18" ry="18"/>
<text text-anchor="middle" x="18" y="-15.8" font-family="Times,serif" font-size="9.00" fill="white">y</text>
</g>
<!-- p&#45;&gt;y -->
<g id="edge7" class="edge">
<title>p&#45;&gt;y</title>
<path fill="none" stroke="black" d="M37.97,-72.76C34.85,-64.37 30.98,-53.93 27.47,-44.5"/>
<polygon fill="black" stroke="black" points="24,-35.15 31.7,-42.95 25.74,-39.83 27.48,-44.52 27.48,-44.52 27.48,-44.52 25.74,-39.83 23.26,-46.09 24,-35.15 24,-35.15"/>
</g>
<!-- _p -->
<!-- p&#45;&gt;_p -->
<!-- x_L -->
<g id="node10" class="node">
<title>x_L</title>
<ellipse fill="#444444" stroke="black" stroke-dasharray="5,2" cx="70" cy="-18" rx="18" ry="18"/>
<text text-anchor="middle" x="70" y="-15.8" font-family="Times,serif" font-size="9.00" fill="white">x&#45;left</text>
</g>
<!-- p&#45;&gt;x_L -->
<g id="edge9" class="edge">
<title>p&#45;&gt;x_L</title>
<path fill="none" stroke="black" d="M50.03,-72.76C53.15,-64.37 57.02,-53.93 60.53,-44.5"/>
<polygon fill="black" stroke="black" points="64,-35.15 64.74,-46.09 62.26,-39.83 60.52,-44.52 60.52,-44.52 60.52,-44.52 62.26,-39.83 56.3,-42.95 64,-35.15 64,-35.15"/>
</g>
</g>
</svg>
