<?xml version="1.0" encoding="UTF-8" standalone="no"?>
<!DOCTYPE svg PUBLIC "-//W3C//DTD SVG 1.1//EN"
 "http://www.w3.org/Graphics/SVG/1.1/DTD/svg11.dtd">
<!-- Generated by graphviz version 8.0.3 (20230416.2022)
 -->
<!-- Title: G Pages: 1 -->
<svg width="130pt" height="196pt"
 viewBox="0.00 0.00 130.00 196.00" xmlns="http://www.w3.org/2000/svg" xmlns:xlink="http://www.w3.org/1999/xlink">
<g id="graph0" class="graph" transform="scale(1 1) rotate(0) translate(4 192)">
<title>G</title>
<polygon fill="white" stroke="none" points="-4,4 -4,-192 126,-192 126,4 -4,4"/>
<!-- p -->
<g id="node1" class="node">
<title>p</title>
<ellipse fill="#444444" stroke="black" cx="70" cy="-170" rx="18" ry="18"/>
<text text-anchor="middle" x="70" y="-167.8" font-family="Times,serif" font-size="9.00" fill="white">p</text>
</g>
<!-- pp -->
<g id="node2" class="node">
<title>pp</title>
<ellipse fill="red" stroke="black" cx="44" cy="-94" rx="18" ry="18"/>
<text text-anchor="middle" x="44" y="-91.8" font-family="Times,serif" font-size="9.00" fill="white">pp</text>
</g>
<!-- p&#45;&gt;pp -->
<g id="edge1" class="edge">
<title>p&#45;&gt;pp</title>
<path fill="none" stroke="black" d="M64.23,-152.58C60.93,-143.19 56.72,-131.21 53,-120.61"/>
<polygon fill="black" stroke="black" points="49.75,-111.38 57.31,-119.32 51.41,-116.09 53.07,-120.81 53.07,-120.81 53.07,-120.81 51.41,-116.09 48.82,-122.3 49.75,-111.38 49.75,-111.38"/>
</g>
<!-- _p -->
<!-- p&#45;&gt;_p -->
<!-- x -->
<g id="node4" class="node">
<title>x</title>
<ellipse fill="red" stroke="black" cx="100" cy="-94" rx="18" ry="18"/>
<ellipse fill="none" stroke="black" cx="100" cy="-94" rx="22" ry="22"/>
<text text-anchor="middle" x="100" y="-91.8" font-family="Times,serif" font-size="9.00" fill="white">x</text>
</g>
<!-- p&#45;&gt;x -->
<g id="edge3" class="edge">
<title>p&#45;&gt;x</title>
<path fill="none" stroke="black" d="M76.51,-152.94C79.93,-144.5 84.23,-133.9 88.21,-124.07"/>
<polygon fill="black" stroke="black" points="91.9,-114.99 92.31,-125.95 90.02,-119.62 88.14,-124.25 88.14,-124.25 88.14,-124.25 90.02,-119.62 83.97,-122.56 91.9,-114.99 91.9,-114.99"/>
</g>
<!-- p2 -->
<g id="node5" class="node">
<title>p2</title>
<ellipse fill="#444444" stroke="black" stroke-dasharray="5,2" cx="18" cy="-18" rx="18" ry="18"/>
<text text-anchor="middle" x="18" y="-15.8" font-family="Times,serif" font-size="9.00" fill="white">p2</text>
</g>
<!-- pp&#45;&gt;p2 -->
<g id="edge4" class="edge">
<title>pp&#45;&gt;p2</title>
<path fill="none" stroke="black" d="M38.23,-76.58C34.93,-67.19 30.72,-55.21 27,-44.61"/>
<polygon fill="black" stroke="black" points="23.75,-35.38 31.31,-43.32 25.41,-40.09 27.07,-44.81 27.07,-44.81 27.07,-44.81 25.41,-40.09 22.82,-46.3 23.75,-35.38 23.75,-35.38"/>
</g>
<!-- _pp -->
<!-- pp&#45;&gt;_pp -->
<!-- y -->
<g id="node7" class="node">
<title>y</title>
<ellipse fill="#444444" stroke="black" stroke-dasharray="5,2" cx="70" cy="-18" rx="18" ry="18"/>
<text text-anchor="middle" x="70" y="-15.8" font-family="Times,serif" font-size="9.00" fill="white">y</text>
</g>
<!-- pp&#45;&gt;y -->
<g id="edge6" class="edge">
<title>pp&#45;&gt;y</title>
<path fill="none" stroke="black" d="M49.77,-76.58C53.07,-67.19 57.28,-55.21 61,-44.61"/>
<polygon fill="black" stroke="black" points="64.25,-35.38 65.18,-46.3 62.59,-40.09 60.93,-44.81 60.93,-44.81 60.93,-44.81 62.59,-40.09 56.69,-43.32 64.25,-35.38 64.25,-35.38"/>
</g>
</g>
</svg>
