<?xml version="1.0" encoding="UTF-8" standalone="no"?>
<!DOCTYPE svg PUBLIC "-//W3C//DTD SVG 1.1//EN"
 "http://www.w3.org/Graphics/SVG/1.1/DTD/svg11.dtd">
<!-- Generated by graphviz version 8.0.3 (20230416.2022)
 -->
<!-- Title: G Pages: 1 -->
<svg width="130pt" height="196pt"
 viewBox="0.00 0.00 130.00 196.00" xmlns="http://www.w3.org/2000/svg" xmlns:xlink="http://www.w3.org/1999/xlink">
<g id="graph0" class="graph" transform="scale(1 1) rotate(0) translate(4 192)">
<title>G</title>
<polygon fill="white" stroke="none" points="-4,4 -4,-192 126,-192 126,4 -4,4"/>
<!-- pp -->
<g id="node1" class="node">
<title>pp</title>
<ellipse fill="#444444" stroke="black" cx="44" cy="-170" rx="18" ry="18"/>
<text text-anchor="middle" x="44" y="-167.8" font-family="Times,serif" font-size="9.00" fill="white">pp</text>
</g>
<!-- p2 -->
<g id="node2" class="node">
<title>p2</title>
<ellipse fill="#444444" stroke="black" stroke-dasharray="5,2" cx="18" cy="-98" rx="18" ry="18"/>
<text text-anchor="middle" x="18" y="-95.8" font-family="Times,serif" font-size="9.00" fill="white">p2</text>
</g>
<!-- pp&#45;&gt;p2 -->
<g id="edge3" class="edge">
<title>pp&#45;&gt;p2</title>
<path fill="none" stroke="black" d="M37.97,-152.76C34.85,-144.37 30.98,-133.93 27.47,-124.5"/>
<polygon fill="black" stroke="black" points="24,-115.15 31.7,-122.95 25.74,-119.83 27.48,-124.52 27.48,-124.52 27.48,-124.52 25.74,-119.83 23.26,-126.09 24,-115.15 24,-115.15"/>
</g>
<!-- _pp -->
<!-- pp&#45;&gt;_pp -->
<!-- p -->
<g id="node4" class="node">
<title>p</title>
<ellipse fill="red" stroke="black" cx="70" cy="-98" rx="18" ry="18"/>
<text text-anchor="middle" x="70" y="-95.8" font-family="Times,serif" font-size="9.00" fill="white">p</text>
</g>
<!-- pp&#45;&gt;p -->
<g id="edge1" class="edge">
<title>pp&#45;&gt;p</title>
<path fill="none" stroke="black" d="M50.03,-152.76C53.15,-144.37 57.02,-133.93 60.53,-124.5"/>
<polygon fill="black" stroke="black" points="64,-115.15 64.74,-126.09 62.26,-119.83 60.52,-124.52 60.52,-124.52 60.52,-124.52 62.26,-119.83 56.3,-122.95 64,-115.15 64,-115.15"/>
</g>
<!-- y -->
<g id="node5" class="node">
<title>y</title>
<ellipse fill="#444444" stroke="black" stroke-dasharray="5,2" cx="44" cy="-22" rx="18" ry="18"/>
<text text-anchor="middle" x="44" y="-19.8" font-family="Times,serif" font-size="9.00" fill="white">y</text>
</g>
<!-- p&#45;&gt;y -->
<g id="edge4" class="edge">
<title>p&#45;&gt;y</title>
<path fill="none" stroke="black" d="M64.23,-80.58C60.93,-71.19 56.72,-59.21 53,-48.61"/>
<polygon fill="black" stroke="black" points="49.75,-39.38 57.31,-47.32 51.41,-44.09 53.07,-48.81 53.07,-48.81 53.07,-48.81 51.41,-44.09 48.82,-50.3 49.75,-39.38 49.75,-39.38"/>
</g>
<!-- _p -->
<!-- p&#45;&gt;_p -->
<!-- x -->
<g id="node7" class="node">
<title>x</title>
<ellipse fill="red" stroke="black" cx="100" cy="-22" rx="18" ry="18"/>
<ellipse fill="none" stroke="black" cx="100" cy="-22" rx="22" ry="22"/>
<text text-anchor="middle" x="100" y="-19.8" font-family="Times,serif" font-size="9.00" fill="white">x</text>
</g>
<!-- p&#45;&gt;x -->
<g id="edge6" class="edge">
<title>p&#45;&gt;x</title>
<path fill="none" stroke="black" d="M76.51,-80.94C79.93,-72.5 84.23,-61.9 88.21,-52.07"/>
<polygon fill="black" stroke="black" points="91.9,-42.99 92.31,-53.95 90.02,-47.62 88.14,-52.25 88.14,-52.25 88.14,-52.25 90.02,-47.62 83.97,-50.56 91.9,-42.99 91.9,-42.99"/>
</g>
</g>
</svg>
