<?xml version="1.0" encoding="UTF-8" standalone="no"?>
<!DOCTYPE svg PUBLIC "-//W3C//DTD SVG 1.1//EN"
 "http://www.w3.org/Graphics/SVG/1.1/DTD/svg11.dtd">
<!-- Generated by graphviz version 8.0.3 (20230416.2022)
 -->
<!-- Title: G Pages: 1 -->
<svg width="156pt" height="268pt"
 viewBox="0.00 0.00 156.00 268.00" xmlns="http://www.w3.org/2000/svg" xmlns:xlink="http://www.w3.org/1999/xlink">
<g id="graph0" class="graph" transform="scale(1 1) rotate(0) translate(4 264)">
<title>G</title>
<polygon fill="white" stroke="none" points="-4,4 -4,-264 152,-264 152,4 -4,4"/>
<!-- p2 -->
<g id="node1" class="node">
<title>p2</title>
<ellipse fill="#444444" stroke="black" stroke-dasharray="5,2" cx="18" cy="-170" rx="18" ry="18"/>
<text text-anchor="middle" x="18" y="-167.8" font-family="Times,serif" font-size="9.00" fill="white">p2</text>
</g>
<!-- _pp -->
<!-- p -->
<g id="node3" class="node">
<title>p</title>
<ellipse fill="red" stroke="black" cx="104" cy="-170" rx="18" ry="18"/>
<text text-anchor="middle" x="104" y="-167.8" font-family="Times,serif" font-size="9.00" fill="white">p</text>
</g>
<!-- x -->
<g id="node4" class="node">
<title>x</title>
<ellipse fill="red" stroke="black" cx="74" cy="-94" rx="18" ry="18"/>
<ellipse fill="none" stroke="black" cx="74" cy="-94" rx="22" ry="22"/>
<text text-anchor="middle" x="74" y="-91.8" font-family="Times,serif" font-size="9.00" fill="white">x</text>
</g>
<!-- p&#45;&gt;x -->
<g id="edge6" class="edge">
<title>p&#45;&gt;x</title>
<path fill="none" stroke="black" d="M97.49,-152.94C94.07,-144.5 89.77,-133.9 85.79,-124.07"/>
<polygon fill="black" stroke="black" points="82.1,-114.99 90.03,-122.56 83.98,-119.62 85.86,-124.25 85.86,-124.25 85.86,-124.25 83.98,-119.62 81.69,-125.95 82.1,-114.99 82.1,-114.99"/>
</g>
<!-- _p -->
<!-- p&#45;&gt;_p -->
<!-- y -->
<g id="node6" class="node">
<title>y</title>
<ellipse fill="#444444" stroke="black" stroke-dasharray="5,2" cx="130" cy="-94" rx="18" ry="18"/>
<text text-anchor="middle" x="130" y="-91.8" font-family="Times,serif" font-size="9.00" fill="white">y</text>
</g>
<!-- p&#45;&gt;y -->
<g id="edge4" class="edge">
<title>p&#45;&gt;y</title>
<path fill="none" stroke="black" d="M109.77,-152.58C113.07,-143.19 117.28,-131.21 121,-120.61"/>
<polygon fill="black" stroke="black" points="124.25,-111.38 125.18,-122.3 122.59,-116.09 120.93,-120.81 120.93,-120.81 120.93,-120.81 122.59,-116.09 116.69,-119.32 124.25,-111.38 124.25,-111.38"/>
</g>
<!-- x_L -->
<g id="node7" class="node">
<title>x_L</title>
<ellipse fill="#444444" stroke="black" stroke-dasharray="5,2" cx="48" cy="-18" rx="18" ry="18"/>
<text text-anchor="middle" x="48" y="-15.8" font-family="Times,serif" font-size="9.00" fill="white">x&#45;left</text>
</g>
<!-- x&#45;&gt;x_L -->
<g id="edge7" class="edge">
<title>x&#45;&gt;x_L</title>
<path fill="none" stroke="black" d="M66.9,-72.78C63.82,-64.01 60.18,-53.65 56.92,-44.38"/>
<polygon fill="black" stroke="black" points="53.7,-35.22 61.26,-43.16 55.36,-39.93 57.01,-44.65 57.01,-44.65 57.01,-44.65 55.36,-39.93 52.77,-46.14 53.7,-35.22 53.7,-35.22"/>
</g>
<!-- _x -->
<!-- x&#45;&gt;_x -->
<!-- x_R -->
<g id="node9" class="node">
<title>x_R</title>
<ellipse fill="#444444" stroke="black" stroke-dasharray="5,2" cx="100" cy="-18" rx="18" ry="18"/>
<text text-anchor="middle" x="100" y="-15.8" font-family="Times,serif" font-size="9.00" fill="white">x&#45;right</text>
</g>
<!-- x&#45;&gt;x_R -->
<g id="edge9" class="edge">
<title>x&#45;&gt;x_R</title>
<path fill="none" stroke="black" d="M81.1,-72.78C84.18,-64.01 87.82,-53.65 91.08,-44.38"/>
<polygon fill="black" stroke="black" points="94.3,-35.22 95.23,-46.14 92.64,-39.93 90.99,-44.65 90.99,-44.65 90.99,-44.65 92.64,-39.93 86.74,-43.16 94.3,-35.22 94.3,-35.22"/>
</g>
<!-- pp -->
<g id="node10" class="node">
<title>pp</title>
<ellipse fill="#444444" stroke="black" cx="61" cy="-242" rx="18" ry="18"/>
<text text-anchor="middle" x="61" y="-239.8" font-family="Times,serif" font-size="9.00" fill="white">pp</text>
</g>
<!-- pp&#45;&gt;p2 -->
<g id="edge3" class="edge">
<title>pp&#45;&gt;p2</title>
<path fill="none" stroke="black" d="M51.88,-226.15C46.18,-216.87 38.72,-204.73 32.25,-194.19"/>
<polygon fill="black" stroke="black" points="27.11,-185.82 36.17,-191.99 29.72,-190.08 32.34,-194.34 32.34,-194.34 32.34,-194.34 29.72,-190.08 28.51,-196.7 27.11,-185.82 27.11,-185.82"/>
</g>
<!-- pp&#45;&gt;_pp -->
<!-- pp&#45;&gt;p -->
<g id="edge1" class="edge">
<title>pp&#45;&gt;p</title>
<path fill="none" stroke="black" d="M70.12,-226.15C75.82,-216.87 83.28,-204.73 89.75,-194.19"/>
<polygon fill="black" stroke="black" points="94.89,-185.82 93.49,-196.7 92.28,-190.08 89.66,-194.34 89.66,-194.34 89.66,-194.34 92.28,-190.08 85.83,-191.99 94.89,-185.82 94.89,-185.82"/>
</g>
</g>
</svg>
