<?xml version="1.0" encoding="UTF-8" standalone="no"?>
<!DOCTYPE svg PUBLIC "-//W3C//DTD SVG 1.1//EN"
 "http://www.w3.org/Graphics/SVG/1.1/DTD/svg11.dtd">
<!-- Generated by graphviz version 8.0.3 (20230416.2022)
 -->
<!-- Title: G Pages: 1 -->
<svg width="191pt" height="196pt"
 viewBox="0.00 0.00 191.00 196.00" xmlns="http://www.w3.org/2000/svg" xmlns:xlink="http://www.w3.org/1999/xlink">
<g id="graph0" class="graph" transform="scale(1 1) rotate(0) translate(4 192)">
<title>G</title>
<polygon fill="white" stroke="none" points="-4,4 -4,-192 187,-192 187,4 -4,4"/>
<!-- p2 -->
<g id="node1" class="node">
<title>p2</title>
<ellipse fill="#444444" stroke="black" stroke-dasharray="5,2" cx="18" cy="-18" rx="18" ry="18"/>
<text text-anchor="middle" x="18" y="-15.8" font-family="Times,serif" font-size="9.00" fill="white">p2</text>
</g>
<!-- _pp -->
<!-- x -->
<g id="node3" class="node">
<title>x</title>
<ellipse fill="#444444" stroke="black" cx="91" cy="-166" rx="18" ry="18"/>
<ellipse fill="none" stroke="black" cx="91" cy="-166" rx="22" ry="22"/>
<text text-anchor="middle" x="91" y="-163.8" font-family="Times,serif" font-size="9.00" fill="white">x</text>
</g>
<!-- pp -->
<g id="node5" class="node">
<title>pp</title>
<ellipse fill="red" stroke="black" cx="44" cy="-90" rx="18" ry="18"/>
<text text-anchor="middle" x="44" y="-87.8" font-family="Times,serif" font-size="9.00" fill="white">pp</text>
</g>
<!-- x&#45;&gt;pp -->
<g id="edge4" class="edge">
<title>x&#45;&gt;pp</title>
<path fill="none" stroke="black" d="M79.62,-147.09C73.34,-137.2 65.47,-124.8 58.72,-114.17"/>
<polygon fill="black" stroke="black" points="53.38,-105.76 62.54,-111.79 56.06,-109.98 58.74,-114.21 58.74,-114.21 58.74,-114.21 56.06,-109.98 54.94,-116.62 53.38,-105.76 53.38,-105.76"/>
</g>
<!-- _x -->
<!-- x&#45;&gt;_x -->
<!-- p -->
<g id="node7" class="node">
<title>p</title>
<ellipse fill="red" stroke="black" cx="139" cy="-90" rx="18" ry="18"/>
<text text-anchor="middle" x="139" y="-87.8" font-family="Times,serif" font-size="9.00" fill="white">p</text>
</g>
<!-- x&#45;&gt;p -->
<g id="edge6" class="edge">
<title>x&#45;&gt;p</title>
<path fill="none" stroke="black" d="M102.62,-147.09C109.1,-137.1 117.24,-124.55 124.17,-113.86"/>
<polygon fill="black" stroke="black" points="129.42,-105.76 127.76,-116.6 126.7,-109.96 123.98,-114.15 123.98,-114.15 123.98,-114.15 126.7,-109.96 120.21,-111.7 129.42,-105.76 129.42,-105.76"/>
</g>
<!-- x_L -->
<g id="node4" class="node">
<title>x_L</title>
<ellipse fill="#444444" stroke="black" stroke-dasharray="5,2" cx="70" cy="-18" rx="18" ry="18"/>
<text text-anchor="middle" x="70" y="-15.8" font-family="Times,serif" font-size="9.00" fill="white">x&#45;left</text>
</g>
<!-- pp&#45;&gt;p2 -->
<g id="edge1" class="edge">
<title>pp&#45;&gt;p2</title>
<path fill="none" stroke="black" d="M37.97,-72.76C34.85,-64.37 30.98,-53.93 27.47,-44.5"/>
<polygon fill="black" stroke="black" points="24,-35.15 31.7,-42.95 25.74,-39.83 27.48,-44.52 27.48,-44.52 27.48,-44.52 25.74,-39.83 23.26,-46.09 24,-35.15 24,-35.15"/>
</g>
<!-- pp&#45;&gt;_pp -->
<!-- pp&#45;&gt;x_L -->
<g id="edge3" class="edge">
<title>pp&#45;&gt;x_L</title>
<path fill="none" stroke="black" d="M50.03,-72.76C53.15,-64.37 57.02,-53.93 60.53,-44.5"/>
<polygon fill="black" stroke="black" points="64,-35.15 64.74,-46.09 62.26,-39.83 60.52,-44.52 60.52,-44.52 60.52,-44.52 62.26,-39.83 56.3,-42.95 64,-35.15 64,-35.15"/>
</g>
<!-- x_R -->
<g id="node8" class="node">
<title>x_R</title>
<ellipse fill="#444444" stroke="black" stroke-dasharray="5,2" cx="113" cy="-18" rx="18" ry="18"/>
<text text-anchor="middle" x="113" y="-15.8" font-family="Times,serif" font-size="9.00" fill="white">x&#45;right</text>
</g>
<!-- p&#45;&gt;x_R -->
<g id="edge7" class="edge">
<title>p&#45;&gt;x_R</title>
<path fill="none" stroke="black" d="M132.97,-72.76C129.85,-64.37 125.98,-53.93 122.47,-44.5"/>
<polygon fill="black" stroke="black" points="119,-35.15 126.7,-42.95 120.74,-39.83 122.48,-44.52 122.48,-44.52 122.48,-44.52 120.74,-39.83 118.26,-46.09 119,-35.15 119,-35.15"/>
</g>
<!-- _p -->
<!-- p&#45;&gt;_p -->
<!-- y -->
<g id="node10" class="node">
<title>y</title>
<ellipse fill="#444444" stroke="black" stroke-dasharray="5,2" cx="165" cy="-18" rx="18" ry="18"/>
<text text-anchor="middle" x="165" y="-15.8" font-family="Times,serif" font-size="9.00" fill="white">y</text>
</g>
<!-- p&#45;&gt;y -->
<g id="edge9" class="edge">
<title>p&#45;&gt;y</title>
<path fill="none" stroke="black" d="M145.03,-72.76C148.15,-64.37 152.02,-53.93 155.53,-44.5"/>
<polygon fill="black" stroke="black" points="159,-35.15 159.74,-46.09 157.26,-39.83 155.52,-44.52 155.52,-44.52 155.52,-44.52 157.26,-39.83 151.3,-42.95 159,-35.15 159,-35.15"/>
</g>
</g>
</svg>
