<?xml version="1.0" encoding="UTF-8" standalone="no"?>
<!DOCTYPE svg PUBLIC "-//W3C//DTD SVG 1.1//EN"
 "http://www.w3.org/Graphics/SVG/1.1/DTD/svg11.dtd">
<!-- Generated by graphviz version 8.0.3 (20230416.2022)
 -->
<!-- Title: G Pages: 1 -->
<svg width="186pt" height="268pt"
 viewBox="0.00 0.00 186.00 268.00" xmlns="http://www.w3.org/2000/svg" xmlns:xlink="http://www.w3.org/1999/xlink">
<g id="graph0" class="graph" transform="scale(1 1) rotate(0) translate(4 264)">
<title>G</title>
<polygon fill="white" stroke="none" points="-4,4 -4,-264 182,-264 182,4 -4,4"/>
<!-- p2 -->
<g id="node1" class="node">
<title>p2</title>
<ellipse fill="#444444" stroke="black" stroke-dasharray="5,2" cx="18" cy="-166" rx="18" ry="18"/>
<text text-anchor="middle" x="18" y="-163.8" font-family="Times,serif" font-size="9.00" fill="white">p2</text>
</g>
<!-- _pp -->
<!-- x -->
<g id="node3" class="node">
<title>x</title>
<ellipse fill="red" stroke="black" cx="108" cy="-166" rx="18" ry="18"/>
<ellipse fill="none" stroke="black" cx="108" cy="-166" rx="22" ry="22"/>
<text text-anchor="middle" x="108" y="-163.8" font-family="Times,serif" font-size="9.00" fill="white">x</text>
</g>
<!-- x_L -->
<g id="node4" class="node">
<title>x_L</title>
<ellipse fill="#444444" stroke="black" stroke-dasharray="5,2" cx="82" cy="-90" rx="18" ry="18"/>
<text text-anchor="middle" x="82" y="-87.8" font-family="Times,serif" font-size="9.00" fill="white">x&#45;left</text>
</g>
<!-- x&#45;&gt;x_L -->
<g id="edge4" class="edge">
<title>x&#45;&gt;x_L</title>
<path fill="none" stroke="black" d="M100.9,-144.78C97.82,-136.01 94.18,-125.65 90.92,-116.38"/>
<polygon fill="black" stroke="black" points="87.7,-107.22 95.26,-115.16 89.36,-111.93 91.01,-116.65 91.01,-116.65 91.01,-116.65 89.36,-111.93 86.77,-118.14 87.7,-107.22 87.7,-107.22"/>
</g>
<!-- _x -->
<!-- x&#45;&gt;_x -->
<!-- p -->
<g id="node6" class="node">
<title>p</title>
<ellipse fill="red" stroke="black" cx="134" cy="-90" rx="18" ry="18"/>
<text text-anchor="middle" x="134" y="-87.8" font-family="Times,serif" font-size="9.00" fill="white">p</text>
</g>
<!-- x&#45;&gt;p -->
<g id="edge6" class="edge">
<title>x&#45;&gt;p</title>
<path fill="none" stroke="black" d="M115.1,-144.78C118.18,-136.01 121.82,-125.65 125.08,-116.38"/>
<polygon fill="black" stroke="black" points="128.3,-107.22 129.23,-118.14 126.64,-111.93 124.99,-116.65 124.99,-116.65 124.99,-116.65 126.64,-111.93 120.74,-115.16 128.3,-107.22 128.3,-107.22"/>
</g>
<!-- x_R -->
<g id="node7" class="node">
<title>x_R</title>
<ellipse fill="#444444" stroke="black" stroke-dasharray="5,2" cx="108" cy="-18" rx="18" ry="18"/>
<text text-anchor="middle" x="108" y="-15.8" font-family="Times,serif" font-size="9.00" fill="white">x&#45;right</text>
</g>
<!-- p&#45;&gt;x_R -->
<g id="edge7" class="edge">
<title>p&#45;&gt;x_R</title>
<path fill="none" stroke="black" d="M127.97,-72.76C124.85,-64.37 120.98,-53.93 117.47,-44.5"/>
<polygon fill="black" stroke="black" points="114,-35.15 121.7,-42.95 115.74,-39.83 117.48,-44.52 117.48,-44.52 117.48,-44.52 115.74,-39.83 113.26,-46.09 114,-35.15 114,-35.15"/>
</g>
<!-- _p -->
<!-- p&#45;&gt;_p -->
<!-- y -->
<g id="node9" class="node">
<title>y</title>
<ellipse fill="#444444" stroke="black" stroke-dasharray="5,2" cx="160" cy="-18" rx="18" ry="18"/>
<text text-anchor="middle" x="160" y="-15.8" font-family="Times,serif" font-size="9.00" fill="white">y</text>
</g>
<!-- p&#45;&gt;y -->
<g id="edge9" class="edge">
<title>p&#45;&gt;y</title>
<path fill="none" stroke="black" d="M140.03,-72.76C143.15,-64.37 147.02,-53.93 150.53,-44.5"/>
<polygon fill="black" stroke="black" points="154,-35.15 154.74,-46.09 152.26,-39.83 150.52,-44.52 150.52,-44.52 150.52,-44.52 152.26,-39.83 146.3,-42.95 154,-35.15 154,-35.15"/>
</g>
<!-- pp -->
<g id="node10" class="node">
<title>pp</title>
<ellipse fill="#444444" stroke="black" cx="61" cy="-242" rx="18" ry="18"/>
<text text-anchor="middle" x="61" y="-239.8" font-family="Times,serif" font-size="9.00" fill="white">pp</text>
</g>
<!-- pp&#45;&gt;p2 -->
<g id="edge1" class="edge">
<title>pp&#45;&gt;p2</title>
<path fill="none" stroke="black" d="M52.3,-226.02C46.39,-215.86 38.46,-202.21 31.71,-190.6"/>
<polygon fill="black" stroke="black" points="26.84,-182.21 35.75,-188.59 29.35,-186.53 31.86,-190.85 31.86,-190.85 31.86,-190.85 29.35,-186.53 27.97,-193.11 26.84,-182.21 26.84,-182.21"/>
</g>
<!-- pp&#45;&gt;_pp -->
<!-- pp&#45;&gt;x -->
<g id="edge3" class="edge">
<title>pp&#45;&gt;x</title>
<path fill="none" stroke="black" d="M70.29,-226.38C76.25,-216.98 84.18,-204.5 91.23,-193.4"/>
<polygon fill="black" stroke="black" points="96.4,-185.26 94.84,-196.12 93.72,-189.48 91.04,-193.7 91.04,-193.7 91.04,-193.7 93.72,-189.48 87.24,-191.29 96.4,-185.26 96.4,-185.26"/>
</g>
</g>
</svg>
