<?xml version="1.0" encoding="UTF-8" standalone="no"?>
<!DOCTYPE svg PUBLIC "-//W3C//DTD SVG 1.1//EN"
 "http://www.w3.org/Graphics/SVG/1.1/DTD/svg11.dtd">
<!-- Generated by graphviz version 6.0.1 (20220911.1526)
 -->
<!-- Title: G Pages: 1 -->
<svg width="302pt" height="260pt"
 viewBox="0.00 0.00 302.00 260.00" xmlns="http://www.w3.org/2000/svg" xmlns:xlink="http://www.w3.org/1999/xlink">
<g id="graph0" class="graph" transform="scale(1 1) rotate(0) translate(4 256)">
<title>G</title>
<polygon fill="white" stroke="none" points="-4,4 -4,-256 298,-256 298,4 -4,4"/>
<!-- 20 -->
<g id="node1" class="node">
<title>20</title>
<ellipse fill="red" stroke="black" cx="61" cy="-162" rx="18" ry="18"/>
<text text-anchor="middle" x="61" y="-159.8" font-family="Times,serif" font-size="9.00" fill="white">20</text>
</g>
<!-- 10 -->
<g id="node3" class="node">
<title>10</title>
<ellipse fill="#444444" stroke="black" cx="18" cy="-90" rx="18" ry="18"/>
<text text-anchor="middle" x="18" y="-87.8" font-family="Times,serif" font-size="9.00" fill="white">10</text>
</g>
<!-- 20&#45;&gt;10 -->
<g id="edge2" class="edge">
<title>20&#45;&gt;10</title>
<path fill="none" stroke="black" d="M51.88,-146.15C46.24,-136.97 38.87,-124.97 32.44,-114.51"/>
<polygon fill="black" stroke="black" points="27.11,-105.82 36.17,-111.99 29.72,-110.08 32.34,-114.34 32.34,-114.34 32.34,-114.34 29.72,-110.08 28.51,-116.7 27.11,-105.82 27.11,-105.82"/>
</g>
<!-- h20 -->
<!-- 20&#45;&gt;h20 -->
<!-- 40 -->
<g id="node5" class="node">
<title>40</title>
<ellipse fill="#444444" stroke="black" cx="104" cy="-90" rx="18" ry="18"/>
<text text-anchor="middle" x="104" y="-87.8" font-family="Times,serif" font-size="9.00" fill="white">40</text>
</g>
<!-- 20&#45;&gt;40 -->
<g id="edge4" class="edge">
<title>20&#45;&gt;40</title>
<path fill="none" stroke="black" d="M70.12,-146.15C75.76,-136.97 83.13,-124.97 89.56,-114.51"/>
<polygon fill="black" stroke="black" points="94.89,-105.82 93.49,-116.7 92.28,-110.08 89.66,-114.34 89.66,-114.34 89.66,-114.34 92.28,-110.08 85.83,-111.99 94.89,-105.82 94.89,-105.82"/>
</g>
<!-- 60 -->
<g id="node2" class="node">
<title>60</title>
<ellipse fill="#444444" stroke="black" cx="147" cy="-234" rx="18" ry="18"/>
<text text-anchor="middle" x="147" y="-231.8" font-family="Times,serif" font-size="9.00" fill="white">60</text>
</g>
<!-- 60&#45;&gt;20 -->
<g id="edge1" class="edge">
<title>60&#45;&gt;20</title>
<path fill="none" stroke="black" d="M133.18,-221.75C119.56,-210.67 98.54,-193.56 82.69,-180.66"/>
<polygon fill="black" stroke="black" points="74.5,-173.99 85.1,-176.81 78.38,-177.14 82.26,-180.3 82.26,-180.3 82.26,-180.3 78.38,-177.14 79.41,-183.79 74.5,-173.99 74.5,-173.99"/>
</g>
<!-- h60 -->
<!-- 60&#45;&gt;h60 -->
<!-- 90 -->
<g id="node10" class="node">
<title>90</title>
<ellipse fill="red" stroke="black" cx="233" cy="-162" rx="18" ry="18"/>
<text text-anchor="middle" x="233" y="-159.8" font-family="Times,serif" font-size="9.00" fill="white">90</text>
</g>
<!-- 60&#45;&gt;90 -->
<g id="edge9" class="edge">
<title>60&#45;&gt;90</title>
<path fill="none" stroke="black" d="M160.82,-221.75C174.44,-210.67 195.46,-193.56 211.31,-180.66"/>
<polygon fill="black" stroke="black" points="219.5,-173.99 214.59,-183.79 215.62,-177.14 211.74,-180.3 211.74,-180.3 211.74,-180.3 215.62,-177.14 208.9,-176.81 219.5,-173.99 219.5,-173.99"/>
</g>
<!-- 30 -->
<g id="node6" class="node">
<title>30</title>
<ellipse fill="red" stroke="black" cx="61" cy="-18" rx="18" ry="18"/>
<text text-anchor="middle" x="61" y="-15.8" font-family="Times,serif" font-size="9.00" fill="white">30</text>
</g>
<!-- 40&#45;&gt;30 -->
<g id="edge5" class="edge">
<title>40&#45;&gt;30</title>
<path fill="none" stroke="black" d="M94.88,-74.15C89.24,-64.97 81.87,-52.97 75.44,-42.51"/>
<polygon fill="black" stroke="black" points="70.11,-33.82 79.17,-39.99 72.72,-38.08 75.34,-42.34 75.34,-42.34 75.34,-42.34 72.72,-38.08 71.51,-44.7 70.11,-33.82 70.11,-33.82"/>
</g>
<!-- h40 -->
<!-- 40&#45;&gt;h40 -->
<!-- 50 -->
<g id="node8" class="node">
<title>50</title>
<ellipse fill="red" stroke="black" cx="147" cy="-18" rx="18" ry="18"/>
<text text-anchor="middle" x="147" y="-15.8" font-family="Times,serif" font-size="9.00" fill="white">50</text>
</g>
<!-- 40&#45;&gt;50 -->
<g id="edge7" class="edge">
<title>40&#45;&gt;50</title>
<path fill="none" stroke="black" d="M113.12,-74.15C118.76,-64.97 126.13,-52.97 132.56,-42.51"/>
<polygon fill="black" stroke="black" points="137.89,-33.82 136.49,-44.7 135.28,-38.08 132.66,-42.34 132.66,-42.34 132.66,-42.34 135.28,-38.08 128.83,-39.99 137.89,-33.82 137.89,-33.82"/>
</g>
<!-- 70 -->
<g id="node11" class="node">
<title>70</title>
<ellipse fill="#444444" stroke="black" cx="190" cy="-90" rx="18" ry="18"/>
<text text-anchor="middle" x="190" y="-87.8" font-family="Times,serif" font-size="9.00" fill="white">70</text>
</g>
<!-- 90&#45;&gt;70 -->
<g id="edge10" class="edge">
<title>90&#45;&gt;70</title>
<path fill="none" stroke="black" d="M223.88,-146.15C218.24,-136.97 210.87,-124.97 204.44,-114.51"/>
<polygon fill="black" stroke="black" points="199.11,-105.82 208.17,-111.99 201.72,-110.08 204.34,-114.34 204.34,-114.34 204.34,-114.34 201.72,-110.08 200.51,-116.7 199.11,-105.82 199.11,-105.82"/>
</g>
<!-- h90 -->
<!-- 90&#45;&gt;h90 -->
<!-- 110 -->
<g id="node15" class="node">
<title>110</title>
<ellipse fill="#444444" stroke="black" cx="276" cy="-90" rx="18" ry="18"/>
<text text-anchor="middle" x="276" y="-87.8" font-family="Times,serif" font-size="9.00" fill="white">110</text>
</g>
<!-- 90&#45;&gt;110 -->
<g id="edge14" class="edge">
<title>90&#45;&gt;110</title>
<path fill="none" stroke="black" d="M242.12,-146.15C247.76,-136.97 255.13,-124.97 261.56,-114.51"/>
<polygon fill="black" stroke="black" points="266.89,-105.82 265.49,-116.7 264.28,-110.08 261.66,-114.34 261.66,-114.34 261.66,-114.34 264.28,-110.08 257.83,-111.99 266.89,-105.82 266.89,-105.82"/>
</g>
<!-- h70 -->
<!-- 70&#45;&gt;h70 -->
<!-- 80 -->
<g id="node13" class="node">
<title>80</title>
<ellipse fill="red" stroke="black" cx="233" cy="-18" rx="18" ry="18"/>
<text text-anchor="middle" x="233" y="-15.8" font-family="Times,serif" font-size="9.00" fill="white">80</text>
</g>
<!-- 70&#45;&gt;80 -->
<g id="edge12" class="edge">
<title>70&#45;&gt;80</title>
<path fill="none" stroke="black" d="M199.12,-74.15C204.76,-64.97 212.13,-52.97 218.56,-42.51"/>
<polygon fill="black" stroke="black" points="223.89,-33.82 222.49,-44.7 221.28,-38.08 218.66,-42.34 218.66,-42.34 218.66,-42.34 221.28,-38.08 214.83,-39.99 223.89,-33.82 223.89,-33.82"/>
</g>
</g>
</svg>
