<?xml version="1.0" encoding="UTF-8" standalone="no"?>
<!DOCTYPE svg PUBLIC "-//W3C//DTD SVG 1.1//EN"
 "http://www.w3.org/Graphics/SVG/1.1/DTD/svg11.dtd">
<!-- Generated by graphviz version 8.0.3 (20230416.2022)
 -->
<!-- Title: G Pages: 1 -->
<svg width="577pt" height="334pt"
 viewBox="0.00 0.00 576.95 333.90" xmlns="http://www.w3.org/2000/svg" xmlns:xlink="http://www.w3.org/1999/xlink">
<g id="graph0" class="graph" transform="scale(1 1) rotate(0) translate(4 329.9)">
<title>G</title>
<polygon fill="white" stroke="none" points="-4,4 -4,-329.9 572.95,-329.9 572.95,4 -4,4"/>
<!-- 20 -->
<g id="node1" class="node">
<title>20</title>
<ellipse fill="red" stroke="black" cx="99.48" cy="-235.9" rx="18" ry="18"/>
<text text-anchor="middle" x="99.48" y="-233.7" font-family="Times,serif" font-size="9.00" fill="white">20</text>
</g>
<!-- 10 -->
<g id="node3" class="node">
<title>10</title>
<ellipse fill="#444444" stroke="black" cx="44.48" cy="-163.9" rx="18" ry="18"/>
<text text-anchor="middle" x="44.48" y="-161.7" font-family="Times,serif" font-size="9.00" fill="white">10</text>
</g>
<!-- 20&#45;&gt;10 -->
<g id="edge2" class="edge">
<title>20&#45;&gt;10</title>
<path fill="none" stroke="black" d="M88.61,-221.07C80.85,-211.2 70.26,-197.72 61.4,-186.44"/>
<polygon fill="black" stroke="black" points="55.32,-178.7 65.04,-183.78 58.41,-182.63 61.5,-186.57 61.5,-186.57 61.5,-186.57 58.41,-182.63 57.96,-189.35 55.32,-178.7 55.32,-178.7"/>
</g>
<!-- h20 -->
<!-- 20&#45;&gt;h20 -->
<!-- 40 -->
<g id="node8" class="node">
<title>40</title>
<ellipse fill="#444444" stroke="black" cx="203.48" cy="-163.9" rx="18" ry="18"/>
<text text-anchor="middle" x="203.48" y="-161.7" font-family="Times,serif" font-size="9.00" fill="white">40</text>
</g>
<!-- 20&#45;&gt;40 -->
<g id="edge7" class="edge">
<title>20&#45;&gt;40</title>
<path fill="none" stroke="black" d="M113.94,-225.17C131.22,-213.53 160.37,-193.92 180.69,-180.24"/>
<polygon fill="black" stroke="black" points="188.8,-174.78 183.02,-184.09 184.65,-177.57 180.51,-180.36 180.51,-180.36 180.51,-180.36 184.65,-177.57 177.99,-176.63 188.8,-174.78 188.8,-174.78"/>
</g>
<!-- 60 -->
<g id="node2" class="node">
<title>60</title>
<ellipse fill="#444444" stroke="black" cx="307.48" cy="-307.9" rx="18" ry="18"/>
<text text-anchor="middle" x="307.48" y="-305.7" font-family="Times,serif" font-size="9.00" fill="white">60</text>
</g>
<!-- 60&#45;&gt;20 -->
<g id="edge1" class="edge">
<title>60&#45;&gt;20</title>
<path fill="none" stroke="black" d="M290.45,-301.17C254.18,-288.96 169.05,-260.31 125.75,-245.74"/>
<polygon fill="black" stroke="black" points="116.44,-242.61 127.35,-241.53 121.18,-244.21 125.92,-245.8 125.92,-245.8 125.92,-245.8 121.18,-244.21 124.48,-250.06 116.44,-242.61 116.44,-242.61"/>
</g>
<!-- h60 -->
<!-- 60&#45;&gt;h60 -->
<!-- 90 -->
<g id="node19" class="node">
<title>90</title>
<ellipse fill="red" stroke="black" cx="469.48" cy="-235.9" rx="18" ry="18"/>
<text text-anchor="middle" x="469.48" y="-233.7" font-family="Times,serif" font-size="9.00" fill="white">90</text>
</g>
<!-- 60&#45;&gt;90 -->
<g id="edge18" class="edge">
<title>60&#45;&gt;90</title>
<path fill="none" stroke="black" d="M323.9,-299.8C352.28,-287.54 410.68,-262.31 444.24,-247.8"/>
<polygon fill="black" stroke="black" points="453.01,-244.02 445.61,-252.11 448.42,-246 443.83,-247.98 443.83,-247.98 443.83,-247.98 448.42,-246 442.04,-243.85 453.01,-244.02 453.01,-244.02"/>
</g>
<!-- sentinel_l10 -->
<g id="node4" class="node">
<title>sentinel_l10</title>
<ellipse fill="#444444" stroke="black" stroke-dasharray="5,2" cx="18.48" cy="-91.43" rx="18.45" ry="18.45"/>
<text text-anchor="middle" x="18.48" y="-89.23" font-family="Times,serif" font-size="9.00" fill="white">NIL</text>
</g>
<!-- 10&#45;&gt;sentinel_l10 -->
<g id="edge3" class="edge">
<title>10&#45;&gt;sentinel_l10</title>
<path fill="none" stroke="black" d="M38.44,-146.56C35.37,-138.23 31.56,-127.9 28.1,-118.5"/>
<polygon fill="black" stroke="black" points="24.65,-109.17 32.34,-117 26.38,-113.86 28.11,-118.55 28.11,-118.55 28.11,-118.55 26.38,-113.86 23.89,-120.11 24.65,-109.17 24.65,-109.17"/>
</g>
<!-- h10 -->
<!-- 10&#45;&gt;h10 -->
<!-- sentinel_r10 -->
<g id="node6" class="node">
<title>sentinel_r10</title>
<ellipse fill="#444444" stroke="black" stroke-dasharray="5,2" cx="70.48" cy="-91.43" rx="18.45" ry="18.45"/>
<text text-anchor="middle" x="70.48" y="-89.23" font-family="Times,serif" font-size="9.00" fill="white">NIL</text>
</g>
<!-- 10&#45;&gt;sentinel_r10 -->
<g id="edge5" class="edge">
<title>10&#45;&gt;sentinel_r10</title>
<path fill="none" stroke="black" d="M50.51,-146.56C53.58,-138.23 57.39,-127.9 60.86,-118.5"/>
<polygon fill="black" stroke="black" points="64.3,-109.17 65.06,-120.11 62.57,-113.86 60.84,-118.55 60.84,-118.55 60.84,-118.55 62.57,-113.86 56.61,-117 64.3,-109.17 64.3,-109.17"/>
</g>
<!-- 30 -->
<g id="node9" class="node">
<title>30</title>
<ellipse fill="red" stroke="black" cx="151.48" cy="-91.43" rx="18" ry="18"/>
<text text-anchor="middle" x="151.48" y="-89.23" font-family="Times,serif" font-size="9.00" fill="white">30</text>
</g>
<!-- 40&#45;&gt;30 -->
<g id="edge8" class="edge">
<title>40&#45;&gt;30</title>
<path fill="none" stroke="black" d="M193.2,-148.98C185.87,-139.04 175.85,-125.47 167.48,-114.11"/>
<polygon fill="black" stroke="black" points="161.73,-106.32 171.29,-111.7 164.7,-110.34 167.66,-114.37 167.66,-114.37 167.66,-114.37 164.7,-110.34 164.04,-117.04 161.73,-106.32 161.73,-106.32"/>
</g>
<!-- h40 -->
<!-- 40&#45;&gt;h40 -->
<!-- 50 -->
<g id="node14" class="node">
<title>50</title>
<ellipse fill="red" stroke="black" cx="255.48" cy="-91.43" rx="18" ry="18"/>
<text text-anchor="middle" x="255.48" y="-89.23" font-family="Times,serif" font-size="9.00" fill="white">50</text>
</g>
<!-- 40&#45;&gt;50 -->
<g id="edge13" class="edge">
<title>40&#45;&gt;50</title>
<path fill="none" stroke="black" d="M213.75,-148.98C221.08,-139.04 231.1,-125.47 239.47,-114.11"/>
<polygon fill="black" stroke="black" points="245.22,-106.32 242.91,-117.04 242.25,-110.34 239.29,-114.37 239.29,-114.37 239.29,-114.37 242.25,-110.34 235.66,-111.7 245.22,-106.32 245.22,-106.32"/>
</g>
<!-- sentinel_l30 -->
<g id="node10" class="node">
<title>sentinel_l30</title>
<ellipse fill="#444444" stroke="black" stroke-dasharray="5,2" cx="125.48" cy="-18.48" rx="18.45" ry="18.45"/>
<text text-anchor="middle" x="125.48" y="-16.28" font-family="Times,serif" font-size="9.00" fill="white">NIL</text>
</g>
<!-- 30&#45;&gt;sentinel_l30 -->
<g id="edge9" class="edge">
<title>30&#45;&gt;sentinel_l30</title>
<path fill="none" stroke="black" d="M145.44,-73.97C142.34,-65.5 138.48,-54.97 134.99,-45.43"/>
<polygon fill="black" stroke="black" points="131.65,-36.33 139.32,-44.18 133.37,-41.03 135.09,-45.72 135.09,-45.72 135.09,-45.72 133.37,-41.03 130.87,-47.27 131.65,-36.33 131.65,-36.33"/>
</g>
<!-- h30 -->
<!-- 30&#45;&gt;h30 -->
<!-- sentinel_r30 -->
<g id="node12" class="node">
<title>sentinel_r30</title>
<ellipse fill="#444444" stroke="black" stroke-dasharray="5,2" cx="177.48" cy="-18.48" rx="18.45" ry="18.45"/>
<text text-anchor="middle" x="177.48" y="-16.28" font-family="Times,serif" font-size="9.00" fill="white">NIL</text>
</g>
<!-- 30&#45;&gt;sentinel_r30 -->
<g id="edge11" class="edge">
<title>30&#45;&gt;sentinel_r30</title>
<path fill="none" stroke="black" d="M157.51,-73.97C160.61,-65.5 164.47,-54.97 167.96,-45.43"/>
<polygon fill="black" stroke="black" points="171.3,-36.33 172.08,-47.27 169.58,-41.03 167.86,-45.72 167.86,-45.72 167.86,-45.72 169.58,-41.03 163.63,-44.18 171.3,-36.33 171.3,-36.33"/>
</g>
<!-- sentinel_l50 -->
<g id="node15" class="node">
<title>sentinel_l50</title>
<ellipse fill="#444444" stroke="black" stroke-dasharray="5,2" cx="229.48" cy="-18.48" rx="18.45" ry="18.45"/>
<text text-anchor="middle" x="229.48" y="-16.28" font-family="Times,serif" font-size="9.00" fill="white">NIL</text>
</g>
<!-- 50&#45;&gt;sentinel_l50 -->
<g id="edge14" class="edge">
<title>50&#45;&gt;sentinel_l50</title>
<path fill="none" stroke="black" d="M249.44,-73.97C246.34,-65.5 242.48,-54.97 238.99,-45.43"/>
<polygon fill="black" stroke="black" points="235.65,-36.33 243.32,-44.18 237.37,-41.03 239.09,-45.72 239.09,-45.72 239.09,-45.72 237.37,-41.03 234.87,-47.27 235.65,-36.33 235.65,-36.33"/>
</g>
<!-- h50 -->
<!-- 50&#45;&gt;h50 -->
<!-- sentinel_r50 -->
<g id="node17" class="node">
<title>sentinel_r50</title>
<ellipse fill="#444444" stroke="black" stroke-dasharray="5,2" cx="281.48" cy="-18.48" rx="18.45" ry="18.45"/>
<text text-anchor="middle" x="281.48" y="-16.28" font-family="Times,serif" font-size="9.00" fill="white">NIL</text>
</g>
<!-- 50&#45;&gt;sentinel_r50 -->
<g id="edge16" class="edge">
<title>50&#45;&gt;sentinel_r50</title>
<path fill="none" stroke="black" d="M261.51,-73.97C264.61,-65.5 268.47,-54.97 271.96,-45.43"/>
<polygon fill="black" stroke="black" points="275.3,-36.33 276.08,-47.27 273.58,-41.03 271.86,-45.72 271.86,-45.72 271.86,-45.72 273.58,-41.03 267.63,-44.18 275.3,-36.33 275.3,-36.33"/>
</g>
<!-- 70 -->
<g id="node20" class="node">
<title>70</title>
<ellipse fill="#444444" stroke="black" cx="365.48" cy="-163.9" rx="18" ry="18"/>
<text text-anchor="middle" x="365.48" y="-161.7" font-family="Times,serif" font-size="9.00" fill="white">70</text>
</g>
<!-- 90&#45;&gt;70 -->
<g id="edge19" class="edge">
<title>90&#45;&gt;70</title>
<path fill="none" stroke="black" d="M455.01,-225.17C437.73,-213.53 408.58,-193.92 388.26,-180.24"/>
<polygon fill="black" stroke="black" points="380.15,-174.78 390.96,-176.63 384.3,-177.57 388.44,-180.36 388.44,-180.36 388.44,-180.36 384.3,-177.57 385.93,-184.09 380.15,-174.78 380.15,-174.78"/>
</g>
<!-- h90 -->
<!-- 90&#45;&gt;h90 -->
<!-- 110 -->
<g id="node28" class="node">
<title>110</title>
<ellipse fill="#444444" stroke="black" cx="524.48" cy="-163.9" rx="18" ry="18"/>
<text text-anchor="middle" x="524.48" y="-161.7" font-family="Times,serif" font-size="9.00" fill="white">110</text>
</g>
<!-- 90&#45;&gt;110 -->
<g id="edge27" class="edge">
<title>90&#45;&gt;110</title>
<path fill="none" stroke="black" d="M480.34,-221.07C488.1,-211.2 498.69,-197.72 507.55,-186.44"/>
<polygon fill="black" stroke="black" points="513.63,-178.7 510.99,-189.35 510.54,-182.63 507.45,-186.57 507.45,-186.57 507.45,-186.57 510.54,-182.63 503.91,-183.78 513.63,-178.7 513.63,-178.7"/>
</g>
<!-- sentinel_l70 -->
<g id="node21" class="node">
<title>sentinel_l70</title>
<ellipse fill="#444444" stroke="black" stroke-dasharray="5,2" cx="336.48" cy="-91.43" rx="18.45" ry="18.45"/>
<text text-anchor="middle" x="336.48" y="-89.23" font-family="Times,serif" font-size="9.00" fill="white">NIL</text>
</g>
<!-- 70&#45;&gt;sentinel_l70 -->
<g id="edge20" class="edge">
<title>70&#45;&gt;sentinel_l70</title>
<path fill="none" stroke="black" d="M358.89,-146.91C355.39,-138.38 350.98,-127.68 347.01,-118.03"/>
<polygon fill="black" stroke="black" points="343.23,-108.84 351.2,-116.38 345.13,-113.47 347.04,-118.09 347.04,-118.09 347.04,-118.09 345.13,-113.47 342.87,-119.8 343.23,-108.84 343.23,-108.84"/>
</g>
<!-- h70 -->
<!-- 70&#45;&gt;h70 -->
<!-- 80 -->
<g id="node23" class="node">
<title>80</title>
<ellipse fill="red" stroke="black" cx="417.48" cy="-91.43" rx="18" ry="18"/>
<text text-anchor="middle" x="417.48" y="-89.23" font-family="Times,serif" font-size="9.00" fill="white">80</text>
</g>
<!-- 70&#45;&gt;80 -->
<g id="edge22" class="edge">
<title>70&#45;&gt;80</title>
<path fill="none" stroke="black" d="M375.75,-148.98C383.08,-139.04 393.1,-125.47 401.47,-114.11"/>
<polygon fill="black" stroke="black" points="407.22,-106.32 404.91,-117.04 404.25,-110.34 401.29,-114.37 401.29,-114.37 401.29,-114.37 404.25,-110.34 397.66,-111.7 407.22,-106.32 407.22,-106.32"/>
</g>
<!-- sentinel_l80 -->
<g id="node24" class="node">
<title>sentinel_l80</title>
<ellipse fill="#444444" stroke="black" stroke-dasharray="5,2" cx="391.48" cy="-18.48" rx="18.45" ry="18.45"/>
<text text-anchor="middle" x="391.48" y="-16.28" font-family="Times,serif" font-size="9.00" fill="white">NIL</text>
</g>
<!-- 80&#45;&gt;sentinel_l80 -->
<g id="edge23" class="edge">
<title>80&#45;&gt;sentinel_l80</title>
<path fill="none" stroke="black" d="M411.44,-73.97C408.34,-65.5 404.48,-54.97 400.99,-45.43"/>
<polygon fill="black" stroke="black" points="397.65,-36.33 405.32,-44.18 399.37,-41.03 401.09,-45.72 401.09,-45.72 401.09,-45.72 399.37,-41.03 396.87,-47.27 397.65,-36.33 397.65,-36.33"/>
</g>
<!-- h80 -->
<!-- 80&#45;&gt;h80 -->
<!-- sentinel_r80 -->
<g id="node26" class="node">
<title>sentinel_r80</title>
<ellipse fill="#444444" stroke="black" stroke-dasharray="5,2" cx="443.48" cy="-18.48" rx="18.45" ry="18.45"/>
<text text-anchor="middle" x="443.48" y="-16.28" font-family="Times,serif" font-size="9.00" fill="white">NIL</text>
</g>
<!-- 80&#45;&gt;sentinel_r80 -->
<g id="edge25" class="edge">
<title>80&#45;&gt;sentinel_r80</title>
<path fill="none" stroke="black" d="M423.51,-73.97C426.61,-65.5 430.47,-54.97 433.96,-45.43"/>
<polygon fill="black" stroke="black" points="437.3,-36.33 438.08,-47.27 435.58,-41.03 433.86,-45.72 433.86,-45.72 433.86,-45.72 435.58,-41.03 429.63,-44.18 437.3,-36.33 437.3,-36.33"/>
</g>
<!-- sentinel_l110 -->
<g id="node29" class="node">
<title>sentinel_l110</title>
<ellipse fill="#444444" stroke="black" stroke-dasharray="5,2" cx="498.48" cy="-91.43" rx="18.45" ry="18.45"/>
<text text-anchor="middle" x="498.48" y="-89.23" font-family="Times,serif" font-size="9.00" fill="white">NIL</text>
</g>
<!-- 110&#45;&gt;sentinel_l110 -->
<g id="edge28" class="edge">
<title>110&#45;&gt;sentinel_l110</title>
<path fill="none" stroke="black" d="M518.44,-146.56C515.37,-138.23 511.56,-127.9 508.1,-118.5"/>
<polygon fill="black" stroke="black" points="504.65,-109.17 512.34,-117 506.38,-113.86 508.11,-118.55 508.11,-118.55 508.11,-118.55 506.38,-113.86 503.89,-120.11 504.65,-109.17 504.65,-109.17"/>
</g>
<!-- h110 -->
<!-- 110&#45;&gt;h110 -->
<!-- sentinel_r110 -->
<g id="node31" class="node">
<title>sentinel_r110</title>
<ellipse fill="#444444" stroke="black" stroke-dasharray="5,2" cx="550.48" cy="-91.43" rx="18.45" ry="18.45"/>
<text text-anchor="middle" x="550.48" y="-89.23" font-family="Times,serif" font-size="9.00" fill="white">NIL</text>
</g>
<!-- 110&#45;&gt;sentinel_r110 -->
<g id="edge30" class="edge">
<title>110&#45;&gt;sentinel_r110</title>
<path fill="none" stroke="black" d="M530.51,-146.56C533.58,-138.23 537.39,-127.9 540.86,-118.5"/>
<polygon fill="black" stroke="black" points="544.3,-109.17 545.06,-120.11 542.57,-113.86 540.84,-118.55 540.84,-118.55 540.84,-118.55 542.57,-113.86 536.61,-117 544.3,-109.17 544.3,-109.17"/>
</g>
</g>
</svg>
