<?xml version="1.0" encoding="UTF-8" standalone="no"?>
<!DOCTYPE svg PUBLIC "-//W3C//DTD SVG 1.1//EN"
 "http://www.w3.org/Graphics/SVG/1.1/DTD/svg11.dtd">
<!-- Generated by graphviz version 8.0.3 (20230416.2022)
 -->
<!-- Title: G Pages: 1 -->
<svg width="358pt" height="268pt"
 viewBox="0.00 0.00 358.00 268.00" xmlns="http://www.w3.org/2000/svg" xmlns:xlink="http://www.w3.org/1999/xlink">
<g id="graph0" class="graph" transform="scale(1 1) rotate(0) translate(4 264)">
<title>G</title>
<polygon fill="white" stroke="none" points="-4,4 -4,-264 354,-264 354,4 -4,4"/>
<!-- 20 -->
<g id="node1" class="node">
<title>20</title>
<ellipse fill="red" stroke="black" cx="61" cy="-170" rx="18" ry="18"/>
<text text-anchor="middle" x="61" y="-167.8" font-family="Times,serif" font-size="9.00" fill="white">20</text>
</g>
<!-- 10 -->
<g id="node3" class="node">
<title>10</title>
<ellipse fill="#444444" stroke="black" cx="18" cy="-94" rx="18" ry="18"/>
<text text-anchor="middle" x="18" y="-91.8" font-family="Times,serif" font-size="9.00" fill="white">10</text>
</g>
<!-- 20&#45;&gt;10 -->
<g id="edge2" class="edge">
<title>20&#45;&gt;10</title>
<path fill="none" stroke="black" d="M52.3,-154.02C46.39,-143.86 38.46,-130.21 31.71,-118.6"/>
<polygon fill="black" stroke="black" points="26.84,-110.21 35.75,-116.59 29.35,-114.53 31.86,-118.85 31.86,-118.85 31.86,-118.85 29.35,-114.53 27.97,-121.11 26.84,-110.21 26.84,-110.21"/>
</g>
<!-- h20 -->
<!-- 20&#45;&gt;h20 -->
<!-- 40 -->
<g id="node5" class="node">
<title>40</title>
<ellipse fill="#444444" stroke="black" cx="104" cy="-94" rx="18" ry="18"/>
<text text-anchor="middle" x="104" y="-91.8" font-family="Times,serif" font-size="9.00" fill="white">40</text>
</g>
<!-- 20&#45;&gt;40 -->
<g id="edge4" class="edge">
<title>20&#45;&gt;40</title>
<path fill="none" stroke="black" d="M69.7,-154.02C75.61,-143.86 83.54,-130.21 90.29,-118.6"/>
<polygon fill="black" stroke="black" points="95.16,-110.21 94.03,-121.11 92.65,-114.53 90.14,-118.85 90.14,-118.85 90.14,-118.85 92.65,-114.53 86.25,-116.59 95.16,-110.21 95.16,-110.21"/>
</g>
<!-- 70 -->
<g id="node2" class="node">
<title>70</title>
<ellipse fill="#444444" stroke="black" cx="173" cy="-242" rx="18" ry="18"/>
<text text-anchor="middle" x="173" y="-239.8" font-family="Times,serif" font-size="9.00" fill="white">70</text>
</g>
<!-- 70&#45;&gt;20 -->
<g id="edge1" class="edge">
<title>70&#45;&gt;20</title>
<path fill="none" stroke="black" d="M157.9,-231.56C138.92,-219.7 106.17,-199.23 84.05,-185.41"/>
<polygon fill="black" stroke="black" points="75.87,-180.29 86.73,-181.77 80.11,-182.94 84.35,-185.59 84.35,-185.59 84.35,-185.59 80.11,-182.94 81.96,-189.41 75.87,-180.29 75.87,-180.29"/>
</g>
<!-- h70 -->
<!-- 70&#45;&gt;h70 -->
<!-- 90 -->
<g id="node10" class="node">
<title>90</title>
<ellipse fill="red" stroke="black" cx="289" cy="-170" rx="18" ry="18"/>
<text text-anchor="middle" x="289" y="-167.8" font-family="Times,serif" font-size="9.00" fill="white">90</text>
</g>
<!-- 70&#45;&gt;90 -->
<g id="edge9" class="edge">
<title>70&#45;&gt;90</title>
<path fill="none" stroke="black" d="M188.16,-231.85C207.79,-220.01 242.2,-199.24 265.29,-185.31"/>
<polygon fill="black" stroke="black" points="273.83,-180.15 267.59,-189.17 269.55,-182.74 265.27,-185.32 265.27,-185.32 265.27,-185.32 269.55,-182.74 262.94,-181.47 273.83,-180.15 273.83,-180.15"/>
</g>
<!-- 30 -->
<g id="node6" class="node">
<title>30</title>
<ellipse fill="red" stroke="black" cx="61" cy="-18" rx="18" ry="18"/>
<text text-anchor="middle" x="61" y="-15.8" font-family="Times,serif" font-size="9.00" fill="white">30</text>
</g>
<!-- 40&#45;&gt;30 -->
<g id="edge5" class="edge">
<title>40&#45;&gt;30</title>
<path fill="none" stroke="black" d="M95.3,-78.02C89.39,-67.86 81.46,-54.21 74.71,-42.6"/>
<polygon fill="black" stroke="black" points="69.84,-34.21 78.75,-40.59 72.35,-38.53 74.86,-42.85 74.86,-42.85 74.86,-42.85 72.35,-38.53 70.97,-45.11 69.84,-34.21 69.84,-34.21"/>
</g>
<!-- h40 -->
<!-- 40&#45;&gt;h40 -->
<!-- 50 -->
<g id="node8" class="node">
<title>50</title>
<ellipse fill="red" stroke="black" cx="147" cy="-18" rx="18" ry="18"/>
<text text-anchor="middle" x="147" y="-15.8" font-family="Times,serif" font-size="9.00" fill="white">50</text>
</g>
<!-- 40&#45;&gt;50 -->
<g id="edge7" class="edge">
<title>40&#45;&gt;50</title>
<path fill="none" stroke="black" d="M112.7,-78.02C118.61,-67.86 126.54,-54.21 133.29,-42.6"/>
<polygon fill="black" stroke="black" points="138.16,-34.21 137.03,-45.11 135.65,-38.53 133.14,-42.85 133.14,-42.85 133.14,-42.85 135.65,-38.53 129.25,-40.59 138.16,-34.21 138.16,-34.21"/>
</g>
<!-- 80 -->
<g id="node11" class="node">
<title>80</title>
<ellipse fill="red" stroke="black" cx="242" cy="-94" rx="18" ry="18"/>
<ellipse fill="none" stroke="black" cx="242" cy="-94" rx="22" ry="22"/>
<text text-anchor="middle" x="242" y="-91.8" font-family="Times,serif" font-size="9.00" fill="white">80</text>
</g>
<!-- 90&#45;&gt;80 -->
<g id="edge10" class="edge">
<title>90&#45;&gt;80</title>
<path fill="none" stroke="black" d="M279.71,-154.38C273.75,-144.98 265.82,-132.5 258.77,-121.4"/>
<polygon fill="black" stroke="black" points="253.6,-113.26 262.76,-119.29 256.28,-117.48 258.96,-121.7 258.96,-121.7 258.96,-121.7 256.28,-117.48 255.16,-124.12 253.6,-113.26 253.6,-113.26"/>
</g>
<!-- h90 -->
<!-- 90&#45;&gt;h90 -->
<!-- 110 -->
<g id="node13" class="node">
<title>110</title>
<ellipse fill="#444444" stroke="black" cx="332" cy="-94" rx="18" ry="18"/>
<text text-anchor="middle" x="332" y="-91.8" font-family="Times,serif" font-size="9.00" fill="white">110</text>
</g>
<!-- 90&#45;&gt;110 -->
<g id="edge12" class="edge">
<title>90&#45;&gt;110</title>
<path fill="none" stroke="black" d="M297.7,-154.02C303.61,-143.86 311.54,-130.21 318.29,-118.6"/>
<polygon fill="black" stroke="black" points="323.16,-110.21 322.03,-121.11 320.65,-114.53 318.14,-118.85 318.14,-118.85 318.14,-118.85 320.65,-114.53 314.25,-116.59 323.16,-110.21 323.16,-110.21"/>
</g>
<!-- l80 -->
<!-- 80&#45;&gt;l80 -->
<!-- h80 -->
<!-- 80&#45;&gt;h80 -->
</g>
</svg>
