<?xml version="1.0" encoding="UTF-8" standalone="no"?>
<!DOCTYPE svg PUBLIC "-//W3C//DTD SVG 1.1//EN"
 "http://www.w3.org/Graphics/SVG/1.1/DTD/svg11.dtd">
<!-- Generated by graphviz version 8.0.3 (20230416.2022)
 -->
<!-- Title: G Pages: 1 -->
<svg width="191pt" height="188pt"
 viewBox="0.00 0.00 191.00 188.00" xmlns="http://www.w3.org/2000/svg" xmlns:xlink="http://www.w3.org/1999/xlink">
<g id="graph0" class="graph" transform="scale(1 1) rotate(0) translate(4 184)">
<title>G</title>
<polygon fill="white" stroke="none" points="-4,4 -4,-184 187,-184 187,4 -4,4"/>
<!-- 50 -->
<g id="node1" class="node">
<title>50</title>
<ellipse fill="none" stroke="black" cx="91" cy="-162" rx="18" ry="18"/>
<text text-anchor="middle" x="91" y="-159.8" font-family="Times,serif" font-size="9.00">50</text>
</g>
<!-- 30 -->
<g id="node2" class="node">
<title>30</title>
<ellipse fill="none" stroke="black" cx="44" cy="-90" rx="18" ry="18"/>
<text text-anchor="middle" x="44" y="-87.8" font-family="Times,serif" font-size="9.00">30</text>
</g>
<!-- 50&#45;&gt;30 -->
<g id="edge1" class="edge">
<title>50&#45;&gt;30</title>
<path fill="none" stroke="black" d="M81.26,-146.5C74.9,-137.02 66.45,-124.44 59.21,-113.66"/>
<polygon fill="black" stroke="black" points="53.73,-105.49 63.04,-111.28 56.51,-109.64 59.3,-113.79 59.3,-113.79 59.3,-113.79 56.51,-109.64 55.56,-116.3 53.73,-105.49 53.73,-105.49"/>
</g>
<!-- h50 -->
<!-- 50&#45;&gt;h50 -->
<!-- 70 -->
<g id="node4" class="node">
<title>70</title>
<ellipse fill="none" stroke="black" cx="139" cy="-90" rx="18" ry="18"/>
<text text-anchor="middle" x="139" y="-87.8" font-family="Times,serif" font-size="9.00">70</text>
</g>
<!-- 50&#45;&gt;70 -->
<g id="edge3" class="edge">
<title>50&#45;&gt;70</title>
<path fill="none" stroke="black" d="M100.95,-146.5C107.45,-137.02 116.07,-124.44 123.46,-113.66"/>
<polygon fill="black" stroke="black" points="129.07,-105.49 127.12,-116.28 126.24,-109.61 123.41,-113.73 123.41,-113.73 123.41,-113.73 126.24,-109.61 119.7,-111.19 129.07,-105.49 129.07,-105.49"/>
</g>
<!-- 20 -->
<g id="node5" class="node">
<title>20</title>
<ellipse fill="none" stroke="black" cx="18" cy="-18" rx="18" ry="18"/>
<text text-anchor="middle" x="18" y="-15.8" font-family="Times,serif" font-size="9.00">20</text>
</g>
<!-- 30&#45;&gt;20 -->
<g id="edge4" class="edge">
<title>30&#45;&gt;20</title>
<path fill="none" stroke="black" d="M37.97,-72.76C34.85,-64.37 30.98,-53.93 27.47,-44.5"/>
<polygon fill="black" stroke="black" points="24,-35.15 31.7,-42.95 25.74,-39.83 27.48,-44.52 27.48,-44.52 27.48,-44.52 25.74,-39.83 23.26,-46.09 24,-35.15 24,-35.15"/>
</g>
<!-- h30 -->
<!-- 30&#45;&gt;h30 -->
<!-- 40 -->
<g id="node7" class="node">
<title>40</title>
<ellipse fill="none" stroke="black" cx="70" cy="-18" rx="18" ry="18"/>
<text text-anchor="middle" x="70" y="-15.8" font-family="Times,serif" font-size="9.00">40</text>
</g>
<!-- 30&#45;&gt;40 -->
<g id="edge6" class="edge">
<title>30&#45;&gt;40</title>
<path fill="none" stroke="black" d="M50.03,-72.76C53.15,-64.37 57.02,-53.93 60.53,-44.5"/>
<polygon fill="black" stroke="black" points="64,-35.15 64.74,-46.09 62.26,-39.83 60.52,-44.52 60.52,-44.52 60.52,-44.52 62.26,-39.83 56.3,-42.95 64,-35.15 64,-35.15"/>
</g>
<!-- 60 -->
<g id="node8" class="node">
<title>60</title>
<ellipse fill="none" stroke="black" cx="113" cy="-18" rx="18" ry="18"/>
<text text-anchor="middle" x="113" y="-15.8" font-family="Times,serif" font-size="9.00">60</text>
</g>
<!-- 70&#45;&gt;60 -->
<g id="edge7" class="edge">
<title>70&#45;&gt;60</title>
<path fill="none" stroke="black" d="M132.97,-72.76C129.85,-64.37 125.98,-53.93 122.47,-44.5"/>
<polygon fill="black" stroke="black" points="119,-35.15 126.7,-42.95 120.74,-39.83 122.48,-44.52 122.48,-44.52 122.48,-44.52 120.74,-39.83 118.26,-46.09 119,-35.15 119,-35.15"/>
</g>
<!-- h70 -->
<!-- 70&#45;&gt;h70 -->
<!-- 80 -->
<g id="node10" class="node">
<title>80</title>
<ellipse fill="none" stroke="black" cx="165" cy="-18" rx="18" ry="18"/>
<text text-anchor="middle" x="165" y="-15.8" font-family="Times,serif" font-size="9.00">80</text>
</g>
<!-- 70&#45;&gt;80 -->
<g id="edge9" class="edge">
<title>70&#45;&gt;80</title>
<path fill="none" stroke="black" d="M145.03,-72.76C148.15,-64.37 152.02,-53.93 155.53,-44.5"/>
<polygon fill="black" stroke="black" points="159,-35.15 159.74,-46.09 157.26,-39.83 155.52,-44.52 155.52,-44.52 155.52,-44.52 157.26,-39.83 151.3,-42.95 159,-35.15 159,-35.15"/>
</g>
</g>
</svg>
