<?xml version="1.0" encoding="UTF-8" standalone="no"?>
<!DOCTYPE svg PUBLIC "-//W3C//DTD SVG 1.1//EN"
 "http://www.w3.org/Graphics/SVG/1.1/DTD/svg11.dtd">
<!-- Generated by graphviz version 6.0.1 (20220911.1526)
 -->
<!-- Title: G Pages: 1 -->
<svg width="164pt" height="196pt"
 viewBox="0.00 0.00 164.00 196.00" xmlns="http://www.w3.org/2000/svg" xmlns:xlink="http://www.w3.org/1999/xlink">
<g id="graph0" class="graph" transform="scale(1 1) rotate(0) translate(4 192)">
<title>G</title>
<polygon fill="white" stroke="none" points="-4,4 -4,-192 160,-192 160,4 -4,4"/>
<!-- pp -->
<g id="node1" class="node">
<title>pp</title>
<ellipse fill="red" stroke="black" cx="95" cy="-170" rx="18" ry="18"/>
<text text-anchor="middle" x="95" y="-167.8" font-family="Times,serif" font-size="9.00" fill="white">pp</text>
</g>
<!-- p -->
<g id="node2" class="node">
<title>p</title>
<ellipse fill="#444444" stroke="black" cx="52" cy="-98" rx="18" ry="18"/>
<text text-anchor="middle" x="52" y="-95.8" font-family="Times,serif" font-size="9.00" fill="white">p</text>
</g>
<!-- pp&#45;&gt;p -->
<g id="edge1" class="edge">
<title>pp&#45;&gt;p</title>
<path fill="none" stroke="black" d="M85.88,-154.15C80.24,-144.97 72.87,-132.97 66.44,-122.51"/>
<polygon fill="black" stroke="black" points="61.11,-113.82 70.17,-119.99 63.72,-118.08 66.34,-122.34 66.34,-122.34 66.34,-122.34 63.72,-118.08 62.51,-124.7 61.11,-113.82 61.11,-113.82"/>
</g>
<!-- _pp -->
<!-- pp&#45;&gt;_pp -->
<!-- p2 -->
<g id="node4" class="node">
<title>p2</title>
<ellipse fill="#444444" stroke="black" cx="138" cy="-98" rx="18" ry="18"/>
<text text-anchor="middle" x="138" y="-95.8" font-family="Times,serif" font-size="9.00" fill="white">p2</text>
</g>
<!-- pp&#45;&gt;p2 -->
<g id="edge3" class="edge">
<title>pp&#45;&gt;p2</title>
<path fill="none" stroke="black" d="M104.12,-154.15C109.76,-144.97 117.13,-132.97 123.56,-122.51"/>
<polygon fill="black" stroke="black" points="128.89,-113.82 127.49,-124.7 126.28,-118.08 123.66,-122.34 123.66,-122.34 123.66,-122.34 126.28,-118.08 119.83,-119.99 128.89,-113.82 128.89,-113.82"/>
</g>
<!-- x -->
<g id="node5" class="node">
<title>x</title>
<ellipse fill="red" stroke="black" cx="22" cy="-22" rx="18" ry="18"/>
<ellipse fill="none" stroke="black" cx="22" cy="-22" rx="22" ry="22"/>
<text text-anchor="middle" x="22" y="-19.8" font-family="Times,serif" font-size="9.00" fill="white">x</text>
</g>
<!-- p&#45;&gt;x -->
<g id="edge4" class="edge">
<title>p&#45;&gt;x</title>
<path fill="none" stroke="black" d="M45.49,-80.94C42.08,-72.53 37.79,-61.95 33.82,-52.15"/>
<polygon fill="black" stroke="black" points="29.99,-42.72 37.92,-50.29 31.87,-47.35 33.75,-51.98 33.75,-51.98 33.75,-51.98 31.87,-47.35 29.58,-53.67 29.99,-42.72 29.99,-42.72"/>
</g>
<!-- _p -->
<!-- p&#45;&gt;_p -->
</g>
</svg>
