<?xml version="1.0" encoding="UTF-8" standalone="no"?>
<!DOCTYPE svg PUBLIC "-//W3C//DTD SVG 1.1//EN"
 "http://www.w3.org/Graphics/SVG/1.1/DTD/svg11.dtd">
<!-- Generated by graphviz version 8.0.3 (20230416.2022)
 -->
<!-- Title: G Pages: 1 -->
<svg width="148pt" height="260pt"
 viewBox="0.00 0.00 148.00 260.00" xmlns="http://www.w3.org/2000/svg" xmlns:xlink="http://www.w3.org/1999/xlink">
<g id="graph0" class="graph" transform="scale(1 1) rotate(0) translate(4 256)">
<title>G</title>
<polygon fill="white" stroke="none" points="-4,4 -4,-256 144,-256 144,4 -4,4"/>
<!-- 30 -->
<g id="node1" class="node">
<title>30</title>
<ellipse fill="none" stroke="black" cx="44" cy="-234" rx="18" ry="18"/>
<text text-anchor="middle" x="44" y="-231.8" font-family="Times,serif" font-size="9.00">30</text>
</g>
<!-- 20 -->
<g id="node2" class="node">
<title>20</title>
<ellipse fill="none" stroke="black" cx="18" cy="-162" rx="18" ry="18"/>
<text text-anchor="middle" x="18" y="-159.8" font-family="Times,serif" font-size="9.00">20</text>
</g>
<!-- 30&#45;&gt;20 -->
<g id="edge1" class="edge">
<title>30&#45;&gt;20</title>
<path fill="none" stroke="black" d="M37.97,-216.76C34.85,-208.37 30.98,-197.93 27.47,-188.5"/>
<polygon fill="black" stroke="black" points="24,-179.15 31.7,-186.95 25.74,-183.83 27.48,-188.52 27.48,-188.52 27.48,-188.52 25.74,-183.83 23.26,-190.09 24,-179.15 24,-179.15"/>
</g>
<!-- h30 -->
<!-- 30&#45;&gt;h30 -->
<!-- 50 -->
<g id="node4" class="node">
<title>50</title>
<ellipse fill="none" stroke="black" cx="70" cy="-162" rx="18" ry="18"/>
<text text-anchor="middle" x="70" y="-159.8" font-family="Times,serif" font-size="9.00">50</text>
</g>
<!-- 30&#45;&gt;50 -->
<g id="edge3" class="edge">
<title>30&#45;&gt;50</title>
<path fill="none" stroke="black" d="M50.03,-216.76C53.15,-208.37 57.02,-197.93 60.53,-188.5"/>
<polygon fill="black" stroke="black" points="64,-179.15 64.74,-190.09 62.26,-183.83 60.52,-188.52 60.52,-188.52 60.52,-188.52 62.26,-183.83 56.3,-186.95 64,-179.15 64,-179.15"/>
</g>
<!-- 40 -->
<g id="node5" class="node">
<title>40</title>
<ellipse fill="none" stroke="black" cx="44" cy="-90" rx="18" ry="18"/>
<text text-anchor="middle" x="44" y="-87.8" font-family="Times,serif" font-size="9.00">40</text>
</g>
<!-- 50&#45;&gt;40 -->
<g id="edge4" class="edge">
<title>50&#45;&gt;40</title>
<path fill="none" stroke="black" d="M63.97,-144.76C60.85,-136.37 56.98,-125.93 53.47,-116.5"/>
<polygon fill="black" stroke="black" points="50,-107.15 57.7,-114.95 51.74,-111.83 53.48,-116.52 53.48,-116.52 53.48,-116.52 51.74,-111.83 49.26,-118.09 50,-107.15 50,-107.15"/>
</g>
<!-- h50 -->
<!-- 50&#45;&gt;h50 -->
<!-- 70 -->
<g id="node7" class="node">
<title>70</title>
<ellipse fill="none" stroke="black" cx="96" cy="-90" rx="18" ry="18"/>
<text text-anchor="middle" x="96" y="-87.8" font-family="Times,serif" font-size="9.00">70</text>
</g>
<!-- 50&#45;&gt;70 -->
<g id="edge6" class="edge">
<title>50&#45;&gt;70</title>
<path fill="none" stroke="black" d="M76.03,-144.76C79.15,-136.37 83.02,-125.93 86.53,-116.5"/>
<polygon fill="black" stroke="black" points="90,-107.15 90.74,-118.09 88.26,-111.83 86.52,-116.52 86.52,-116.52 86.52,-116.52 88.26,-111.83 82.3,-114.95 90,-107.15 90,-107.15"/>
</g>
<!-- 60 -->
<g id="node8" class="node">
<title>60</title>
<ellipse fill="none" stroke="black" cx="70" cy="-18" rx="18" ry="18"/>
<text text-anchor="middle" x="70" y="-15.8" font-family="Times,serif" font-size="9.00">60</text>
</g>
<!-- 70&#45;&gt;60 -->
<g id="edge7" class="edge">
<title>70&#45;&gt;60</title>
<path fill="none" stroke="black" d="M89.97,-72.76C86.85,-64.37 82.98,-53.93 79.47,-44.5"/>
<polygon fill="black" stroke="black" points="76,-35.15 83.7,-42.95 77.74,-39.83 79.48,-44.52 79.48,-44.52 79.48,-44.52 77.74,-39.83 75.26,-46.09 76,-35.15 76,-35.15"/>
</g>
<!-- h70 -->
<!-- 70&#45;&gt;h70 -->
<!-- 80 -->
<g id="node10" class="node">
<title>80</title>
<ellipse fill="none" stroke="black" cx="122" cy="-18" rx="18" ry="18"/>
<text text-anchor="middle" x="122" y="-15.8" font-family="Times,serif" font-size="9.00">80</text>
</g>
<!-- 70&#45;&gt;80 -->
<g id="edge9" class="edge">
<title>70&#45;&gt;80</title>
<path fill="none" stroke="black" d="M102.03,-72.76C105.15,-64.37 109.02,-53.93 112.53,-44.5"/>
<polygon fill="black" stroke="black" points="116,-35.15 116.74,-46.09 114.26,-39.83 112.52,-44.52 112.52,-44.52 112.52,-44.52 114.26,-39.83 108.3,-42.95 116,-35.15 116,-35.15"/>
</g>
</g>
</svg>
