<?xml version="1.0" encoding="UTF-8" standalone="no"?>
<!DOCTYPE svg PUBLIC "-//W3C//DTD SVG 1.1//EN"
 "http://www.w3.org/Graphics/SVG/1.1/DTD/svg11.dtd">
<!-- Generated by graphviz version 8.0.3 (20230416.2022)
 -->
<!-- Title: G Pages: 1 -->
<svg width="302pt" height="260pt"
 viewBox="0.00 0.00 302.00 260.00" xmlns="http://www.w3.org/2000/svg" xmlns:xlink="http://www.w3.org/1999/xlink">
<g id="graph0" class="graph" transform="scale(1 1) rotate(0) translate(4 256)">
<title>G</title>
<polygon fill="white" stroke="none" points="-4,4 -4,-256 298,-256 298,4 -4,4"/>
<!-- 20 -->
<g id="node1" class="node">
<title>20</title>
<ellipse fill="red" stroke="black" cx="61" cy="-162" rx="18" ry="18"/>
<text text-anchor="middle" x="61" y="-159.8" font-family="Times,serif" font-size="9.00" fill="white">20</text>
</g>
<!-- 10 -->
<g id="node3" class="node">
<title>10</title>
<ellipse fill="#444444" stroke="black" cx="18" cy="-90" rx="18" ry="18"/>
<text text-anchor="middle" x="18" y="-87.8" font-family="Times,serif" font-size="9.00" fill="white">10</text>
</g>
<!-- 20&#45;&gt;10 -->
<g id="edge2" class="edge">
<title>20&#45;&gt;10</title>
<path fill="none" stroke="black" d="M51.88,-146.15C46.18,-136.87 38.72,-124.73 32.25,-114.19"/>
<polygon fill="black" stroke="black" points="27.11,-105.82 36.17,-111.99 29.72,-110.08 32.34,-114.34 32.34,-114.34 32.34,-114.34 29.72,-110.08 28.51,-116.7 27.11,-105.82 27.11,-105.82"/>
</g>
<!-- h20 -->
<!-- 20&#45;&gt;h20 -->
<!-- 40 -->
<g id="node5" class="node">
<title>40</title>
<ellipse fill="#444444" stroke="black" cx="104" cy="-90" rx="18" ry="18"/>
<text text-anchor="middle" x="104" y="-87.8" font-family="Times,serif" font-size="9.00" fill="white">40</text>
</g>
<!-- 20&#45;&gt;40 -->
<g id="edge4" class="edge">
<title>20&#45;&gt;40</title>
<path fill="none" stroke="black" d="M70.12,-146.15C75.82,-136.87 83.28,-124.73 89.75,-114.19"/>
<polygon fill="black" stroke="black" points="94.89,-105.82 93.49,-116.7 92.28,-110.08 89.66,-114.34 89.66,-114.34 89.66,-114.34 92.28,-110.08 85.83,-111.99 94.89,-105.82 94.89,-105.82"/>
</g>
<!-- 60 -->
<g id="node2" class="node">
<title>60</title>
<ellipse fill="#444444" stroke="black" cx="147" cy="-234" rx="18" ry="18"/>
<text text-anchor="middle" x="147" y="-231.8" font-family="Times,serif" font-size="9.00" fill="white">60</text>
</g>
<!-- 60&#45;&gt;20 -->
<g id="edge1" class="edge">
<title>60&#45;&gt;20</title>
<path fill="none" stroke="black" d="M133.18,-221.75C119.52,-210.63 98.4,-193.44 82.54,-180.53"/>
<polygon fill="black" stroke="black" points="74.78,-174.22 85.38,-177.04 78.66,-177.38 82.54,-180.53 82.54,-180.53 82.54,-180.53 78.66,-177.38 79.7,-184.02 74.78,-174.22 74.78,-174.22"/>
</g>
<!-- h60 -->
<!-- 60&#45;&gt;h60 -->
<!-- 90 -->
<g id="node10" class="node">
<title>90</title>
<ellipse fill="red" stroke="black" cx="233" cy="-162" rx="18" ry="18"/>
<text text-anchor="middle" x="233" y="-159.8" font-family="Times,serif" font-size="9.00" fill="white">90</text>
</g>
<!-- 60&#45;&gt;90 -->
<g id="edge9" class="edge">
<title>60&#45;&gt;90</title>
<path fill="none" stroke="black" d="M160.82,-221.75C174.48,-210.63 195.6,-193.44 211.46,-180.53"/>
<polygon fill="black" stroke="black" points="219.22,-174.22 214.3,-184.02 215.34,-177.38 211.46,-180.53 211.46,-180.53 211.46,-180.53 215.34,-177.38 208.62,-177.04 219.22,-174.22 219.22,-174.22"/>
</g>
<!-- 30 -->
<g id="node6" class="node">
<title>30</title>
<ellipse fill="red" stroke="black" cx="61" cy="-18" rx="18" ry="18"/>
<text text-anchor="middle" x="61" y="-15.8" font-family="Times,serif" font-size="9.00" fill="white">30</text>
</g>
<!-- 40&#45;&gt;30 -->
<g id="edge5" class="edge">
<title>40&#45;&gt;30</title>
<path fill="none" stroke="black" d="M94.88,-74.15C89.18,-64.87 81.72,-52.73 75.25,-42.19"/>
<polygon fill="black" stroke="black" points="70.11,-33.82 79.17,-39.99 72.72,-38.08 75.34,-42.34 75.34,-42.34 75.34,-42.34 72.72,-38.08 71.51,-44.7 70.11,-33.82 70.11,-33.82"/>
</g>
<!-- h40 -->
<!-- 40&#45;&gt;h40 -->
<!-- 50 -->
<g id="node8" class="node">
<title>50</title>
<ellipse fill="red" stroke="black" cx="147" cy="-18" rx="18" ry="18"/>
<text text-anchor="middle" x="147" y="-15.8" font-family="Times,serif" font-size="9.00" fill="white">50</text>
</g>
<!-- 40&#45;&gt;50 -->
<g id="edge7" class="edge">
<title>40&#45;&gt;50</title>
<path fill="none" stroke="black" d="M113.12,-74.15C118.82,-64.87 126.28,-52.73 132.75,-42.19"/>
<polygon fill="black" stroke="black" points="137.89,-33.82 136.49,-44.7 135.28,-38.08 132.66,-42.34 132.66,-42.34 132.66,-42.34 135.28,-38.08 128.83,-39.99 137.89,-33.82 137.89,-33.82"/>
</g>
<!-- 70 -->
<g id="node11" class="node">
<title>70</title>
<ellipse fill="#444444" stroke="black" cx="190" cy="-90" rx="18" ry="18"/>
<text text-anchor="middle" x="190" y="-87.8" font-family="Times,serif" font-size="9.00" fill="white">70</text>
</g>
<!-- 90&#45;&gt;70 -->
<g id="edge10" class="edge">
<title>90&#45;&gt;70</title>
<path fill="none" stroke="black" d="M223.88,-146.15C218.18,-136.87 210.72,-124.73 204.25,-114.19"/>
<polygon fill="black" stroke="black" points="199.11,-105.82 208.17,-111.99 201.72,-110.08 204.34,-114.34 204.34,-114.34 204.34,-114.34 201.72,-110.08 200.51,-116.7 199.11,-105.82 199.11,-105.82"/>
</g>
<!-- h90 -->
<!-- 90&#45;&gt;h90 -->
<!-- 110 -->
<g id="node15" class="node">
<title>110</title>
<ellipse fill="#444444" stroke="black" cx="276" cy="-90" rx="18" ry="18"/>
<text text-anchor="middle" x="276" y="-87.8" font-family="Times,serif" font-size="9.00" fill="white">110</text>
</g>
<!-- 90&#45;&gt;110 -->
<g id="edge14" class="edge">
<title>90&#45;&gt;110</title>
<path fill="none" stroke="black" d="M242.12,-146.15C247.82,-136.87 255.28,-124.73 261.75,-114.19"/>
<polygon fill="black" stroke="black" points="266.89,-105.82 265.49,-116.7 264.28,-110.08 261.66,-114.34 261.66,-114.34 261.66,-114.34 264.28,-110.08 257.83,-111.99 266.89,-105.82 266.89,-105.82"/>
</g>
<!-- h70 -->
<!-- 70&#45;&gt;h70 -->
<!-- 80 -->
<g id="node13" class="node">
<title>80</title>
<ellipse fill="red" stroke="black" cx="233" cy="-18" rx="18" ry="18"/>
<text text-anchor="middle" x="233" y="-15.8" font-family="Times,serif" font-size="9.00" fill="white">80</text>
</g>
<!-- 70&#45;&gt;80 -->
<g id="edge12" class="edge">
<title>70&#45;&gt;80</title>
<path fill="none" stroke="black" d="M199.12,-74.15C204.82,-64.87 212.28,-52.73 218.75,-42.19"/>
<polygon fill="black" stroke="black" points="223.89,-33.82 222.49,-44.7 221.28,-38.08 218.66,-42.34 218.66,-42.34 218.66,-42.34 221.28,-38.08 214.83,-39.99 223.89,-33.82 223.89,-33.82"/>
</g>
</g>
</svg>
