<?xml version="1.0" encoding="UTF-8" standalone="no"?>
<!DOCTYPE svg PUBLIC "-//W3C//DTD SVG 1.1//EN"
 "http://www.w3.org/Graphics/SVG/1.1/DTD/svg11.dtd">
<!-- Generated by graphviz version 6.0.1 (20220911.1526)
 -->
<!-- Title: G Pages: 1 -->
<svg width="263pt" height="269pt"
 viewBox="0.00 0.00 263.50 268.99" xmlns="http://www.w3.org/2000/svg" xmlns:xlink="http://www.w3.org/1999/xlink">
<g id="graph0" class="graph" transform="scale(1 1) rotate(0) translate(4 264.99)">
<title>G</title>
<polygon fill="white" stroke="none" points="-4,4 -4,-264.99 259.5,-264.99 259.5,4 -4,4"/>
<!-- 8 -->
<g id="node1" class="node">
<title>8</title>
<ellipse fill="gray" stroke="black" cx="160" cy="-242.99" rx="18" ry="18"/>
<text text-anchor="middle" x="160" y="-239.29" font-family="Times,serif" font-size="14.00">8</text>
</g>
<!-- 4 -->
<g id="node2" class="node">
<title>4</title>
<ellipse fill="red" stroke="black" cx="113" cy="-169.49" rx="18" ry="18"/>
<text text-anchor="middle" x="113" y="-165.79" font-family="Times,serif" font-size="14.00">4</text>
</g>
<!-- 8&#45;&gt;4 -->
<g id="edge1" class="edge">
<title>8&#45;&gt;4</title>
<path fill="none" stroke="black" d="M150.49,-227.52C144.05,-217.73 135.42,-204.6 128.06,-193.4"/>
<polygon fill="black" stroke="black" points="122.5,-184.94 131.75,-190.82 125.24,-189.12 127.99,-193.29 127.99,-193.29 127.99,-193.29 125.24,-189.12 124.23,-195.77 122.5,-184.94 122.5,-184.94"/>
</g>
<!-- _8 -->
<!-- 8&#45;&gt;_8 -->
<!-- 10 -->
<g id="node13" class="node">
<title>10</title>
<ellipse fill="gray" stroke="black" cx="209" cy="-169.49" rx="19.5" ry="19.5"/>
<text text-anchor="middle" x="209" y="-165.79" font-family="Times,serif" font-size="14.00">10</text>
</g>
<!-- 8&#45;&gt;10 -->
<g id="edge12" class="edge">
<title>8&#45;&gt;10</title>
<path fill="none" stroke="black" d="M169.92,-227.52C176.45,-217.99 185.15,-205.29 192.69,-194.29"/>
<polygon fill="black" stroke="black" points="198.42,-185.93 196.48,-196.72 195.59,-190.05 192.77,-194.18 192.77,-194.18 192.77,-194.18 195.59,-190.05 189.06,-191.63 198.42,-185.93 198.42,-185.93"/>
</g>
<!-- 2 -->
<g id="node3" class="node">
<title>2</title>
<ellipse fill="gray" stroke="black" cx="44" cy="-94.49" rx="18" ry="18"/>
<text text-anchor="middle" x="44" y="-90.79" font-family="Times,serif" font-size="14.00">2</text>
</g>
<!-- 4&#45;&gt;2 -->
<g id="edge2" class="edge">
<title>4&#45;&gt;2</title>
<path fill="none" stroke="black" d="M100.98,-155.78C90.49,-144.68 75.1,-128.39 62.95,-115.54"/>
<polygon fill="black" stroke="black" points="55.88,-108.06 66.02,-112.24 59.32,-111.7 62.75,-115.33 62.75,-115.33 62.75,-115.33 59.32,-111.7 59.48,-118.42 55.88,-108.06 55.88,-108.06"/>
</g>
<!-- _4 -->
<!-- 4&#45;&gt;_4 -->
<!-- 6 -->
<g id="node8" class="node">
<title>6</title>
<ellipse fill="gray" stroke="black" cx="139" cy="-94.49" rx="18" ry="18"/>
<text text-anchor="middle" x="139" y="-90.79" font-family="Times,serif" font-size="14.00">6</text>
</g>
<!-- 4&#45;&gt;6 -->
<g id="edge7" class="edge">
<title>4&#45;&gt;6</title>
<path fill="none" stroke="black" d="M118.77,-152.29C122.04,-143.12 126.19,-131.45 129.89,-121.08"/>
<polygon fill="black" stroke="black" points="133.25,-111.65 134.13,-122.58 131.57,-116.36 129.89,-121.07 129.89,-121.07 129.89,-121.07 131.57,-116.36 125.65,-119.56 133.25,-111.65 133.25,-111.65"/>
</g>
<!-- 1 -->
<g id="node4" class="node">
<title>1</title>
<ellipse fill="gray" stroke="black" cx="18" cy="-19.5" rx="18" ry="18"/>
<text text-anchor="middle" x="18" y="-15.8" font-family="Times,serif" font-size="14.00">1</text>
</g>
<!-- 2&#45;&gt;1 -->
<g id="edge3" class="edge">
<title>2&#45;&gt;1</title>
<path fill="none" stroke="black" d="M38.23,-77.29C34.96,-68.13 30.81,-56.46 27.11,-46.08"/>
<polygon fill="black" stroke="black" points="23.75,-36.65 31.35,-44.56 25.43,-41.36 27.11,-46.07 27.11,-46.07 27.11,-46.07 25.43,-41.36 22.87,-47.58 23.75,-36.65 23.75,-36.65"/>
</g>
<!-- _2 -->
<!-- 2&#45;&gt;_2 -->
<!-- 3 -->
<g id="node6" class="node">
<title>3</title>
<ellipse fill="gray" stroke="black" cx="70" cy="-19.5" rx="18" ry="18"/>
<text text-anchor="middle" x="70" y="-15.8" font-family="Times,serif" font-size="14.00">3</text>
</g>
<!-- 2&#45;&gt;3 -->
<g id="edge5" class="edge">
<title>2&#45;&gt;3</title>
<path fill="none" stroke="black" d="M49.77,-77.29C53.04,-68.13 57.19,-56.46 60.89,-46.08"/>
<polygon fill="black" stroke="black" points="64.25,-36.65 65.13,-47.58 62.57,-41.36 60.89,-46.07 60.89,-46.07 60.89,-46.07 62.57,-41.36 56.65,-44.56 64.25,-36.65 64.25,-36.65"/>
</g>
<!-- 5 -->
<g id="node9" class="node">
<title>5</title>
<ellipse fill="gray" stroke="black" cx="113" cy="-19.5" rx="18" ry="18"/>
<text text-anchor="middle" x="113" y="-15.8" font-family="Times,serif" font-size="14.00">5</text>
</g>
<!-- 6&#45;&gt;5 -->
<g id="edge8" class="edge">
<title>6&#45;&gt;5</title>
<path fill="none" stroke="black" d="M133.23,-77.29C129.96,-68.13 125.81,-56.46 122.11,-46.08"/>
<polygon fill="black" stroke="black" points="118.75,-36.65 126.35,-44.56 120.43,-41.36 122.11,-46.07 122.11,-46.07 122.11,-46.07 120.43,-41.36 117.87,-47.58 118.75,-36.65 118.75,-36.65"/>
</g>
<!-- _6 -->
<!-- 6&#45;&gt;_6 -->
<!-- 7 -->
<g id="node11" class="node">
<title>7</title>
<ellipse fill="gray" stroke="black" cx="165" cy="-19.5" rx="18" ry="18"/>
<text text-anchor="middle" x="165" y="-15.8" font-family="Times,serif" font-size="14.00">7</text>
</g>
<!-- 6&#45;&gt;7 -->
<g id="edge10" class="edge">
<title>6&#45;&gt;7</title>
<path fill="none" stroke="black" d="M144.77,-77.29C148.04,-68.13 152.19,-56.46 155.89,-46.08"/>
<polygon fill="black" stroke="black" points="159.25,-36.65 160.13,-47.58 157.57,-41.36 155.89,-46.07 155.89,-46.07 155.89,-46.07 157.57,-41.36 151.65,-44.56 159.25,-36.65 159.25,-36.65"/>
</g>
<!-- 9 -->
<g id="node14" class="node">
<title>9</title>
<ellipse fill="gray" stroke="black" cx="183" cy="-94.49" rx="18" ry="18"/>
<text text-anchor="middle" x="183" y="-90.79" font-family="Times,serif" font-size="14.00">9</text>
</g>
<!-- 10&#45;&gt;9 -->
<g id="edge13" class="edge">
<title>10&#45;&gt;9</title>
<path fill="none" stroke="black" d="M202.71,-150.82C199.58,-142.05 195.75,-131.29 192.29,-121.59"/>
<polygon fill="black" stroke="black" points="188.88,-112 196.47,-119.91 190.56,-116.71 192.23,-121.42 192.23,-121.42 192.23,-121.42 190.56,-116.71 188,-122.93 188.88,-112 188.88,-112"/>
</g>
<!-- _10 -->
<!-- 10&#45;&gt;_10 -->
<!-- 12 -->
<g id="node16" class="node">
<title>12</title>
<ellipse fill="gray" stroke="black" cx="236" cy="-94.49" rx="19.5" ry="19.5"/>
<text text-anchor="middle" x="236" y="-90.79" font-family="Times,serif" font-size="14.00">12</text>
</g>
<!-- 10&#45;&gt;12 -->
<g id="edge15" class="edge">
<title>10&#45;&gt;12</title>
<path fill="none" stroke="black" d="M215.54,-150.82C218.69,-142.3 222.53,-131.9 226.04,-122.42"/>
<polygon fill="black" stroke="black" points="229.52,-113 230.28,-123.94 227.79,-117.69 226.06,-122.38 226.06,-122.38 226.06,-122.38 227.79,-117.69 221.83,-120.82 229.52,-113 229.52,-113"/>
</g>
<!-- 11 -->
<g id="node17" class="node">
<title>11</title>
<ellipse fill="gray" stroke="black" cx="209" cy="-19.5" rx="19.5" ry="19.5"/>
<text text-anchor="middle" x="209" y="-15.8" font-family="Times,serif" font-size="14.00">11</text>
</g>
<!-- 12&#45;&gt;11 -->
<g id="edge16" class="edge">
<title>12&#45;&gt;11</title>
<path fill="none" stroke="black" d="M229.46,-75.82C226.31,-67.31 222.47,-56.9 218.96,-47.43"/>
<polygon fill="black" stroke="black" points="215.48,-38.01 223.17,-45.82 217.21,-42.7 218.94,-47.38 218.94,-47.38 218.94,-47.38 217.21,-42.7 214.72,-48.95 215.48,-38.01 215.48,-38.01"/>
</g>
<!-- _12 -->
<!-- 12&#45;&gt;_12 -->
</g>
</svg>
